<?xml version="1.0" standalone="no"?><!DOCTYPE svg PUBLIC "-//W3C//DTD SVG 1.1//EN" "http://www.w3.org/Graphics/SVG/1.1/DTD/svg11.dtd"><svg class="icon" width="200px" height="200.00px" viewBox="0 0 1024 1024" version="1.1" xmlns="http://www.w3.org/2000/svg"><path d="M115.727 521.884c78.234 0 141.655 63.42 141.655 141.655 0 10.132-1.064 20.015-3.086 29.544l-2.298 0.056-2.343 0.019C171.421 693.158 108 629.736 108 551.502c0-10.132 1.064-20.016 3.086-29.545l2.298-0.054zM445.397 488.402c78.234 0 141.655 63.42 141.655 141.655 0 10.132-1.064 20.015-3.086 29.544l-2.298 0.055-2.343 0.02c-78.234 0-141.655-63.422-141.655-141.656 0-10.132 1.064-20.016 3.086-29.545l2.298-0.054zM834.764 587.398c-73.038-28.036-154.975 8.445-183.011 81.482a142.232 142.232 0 0 0-7.707 28.688l2.126 0.876 2.18 0.857c73.038 28.036 154.974-8.444 183.01-81.482a142.232 142.232 0 0 0 7.708-28.69l-2.126-0.873z" fill="#92AA2C" /><path d="M505.12 613.383c-73.037-28.037-154.974 8.444-183.01 81.481a142.232 142.232 0 0 0-7.708 28.688l2.126 0.876 2.18 0.857c73.038 28.036 154.975-8.444 183.012-81.482a142.232 142.232 0 0 0 7.707-28.689l-2.126-0.874zM308.922 464.963h4.82c-28.03 154.658-37.372 316.751-28.03 486.279-8.5 0.49-14.992 0.736-19.478 0.736 0-212.389 14.23-374.727 42.688-487.015zM640.043 439.466h4.819c-28.029 154.658-37.372 316.751-28.029 486.278-8.5 0.491-14.993 0.737-19.48 0.737 0-212.39 14.23-374.727 42.69-487.015z" fill="#92AA2C" /><path d="M330.785 100.331c56.916 0 103.686 43.44 108.965 98.974 11.43-4.05 23.734-6.254 36.553-6.254 60.454 0 109.461 49.007 109.461 109.46 0 42.014-23.67 78.5-58.402 96.848 7.698 14.975 12.042 31.96 12.042 49.959 0 60.453-49.007 109.46-109.46 109.46-55.47 0-101.302-41.259-108.483-94.762-19.653 18.816-46.311 30.374-75.67 30.374-60.453 0-109.46-49.008-109.46-109.461 0-59.599 47.631-108.073 106.904-109.432-13.758-18.295-21.91-41.048-21.91-65.705 0-60.454 49.006-109.461 109.46-109.461z m36.553 212.667l-0.33 0.119a109.17 109.17 0 0 1-33.666 6.106c10.976 14.596 18.385 32.031 20.932 51.006a109.62 109.62 0 0 1 24.611-17.76 108.694 108.694 0 0 1-11.547-39.471z" fill="#FBF5DB" /><path d="M661.743 72c56.916 0 103.686 43.44 108.965 98.974 11.43-4.05 23.734-6.254 36.553-6.254 60.453 0 109.46 49.007 109.46 109.46 0 42.014-23.67 78.5-58.401 96.848 7.697 14.975 12.042 31.96 12.042 49.959 0 60.453-49.007 109.46-109.46 109.46-55.47 0-101.302-41.259-108.483-94.762-19.653 18.816-46.311 30.374-75.67 30.374-60.453 0-109.46-49.008-109.46-109.461 0-59.599 47.631-108.073 106.904-109.432-13.758-18.295-21.911-41.048-21.911-65.705C552.282 121.007 601.289 72 661.742 72z m36.553 212.667l-0.33 0.119a109.17 109.17 0 0 1-33.666 6.106c10.976 14.596 18.385 32.03 20.932 51.006a109.62 109.62 0 0 1 24.61-17.76 108.694 108.694 0 0 1-11.546-39.471z" fill="#FBF5DB" /><path d="M373.281 334.706m-87.569 0a87.569 87.569 0 1 0 175.138 0 87.569 87.569 0 1 0-175.138 0Z" fill="#ECC234" /><path d="M702.951 302.511m-87.569 0a87.569 87.569 0 1 0 175.138 0 87.569 87.569 0 1 0-175.138 0Z" fill="#ECC234" /></svg>