<?xml version="1.0" standalone="no"?><!DOCTYPE svg PUBLIC "-//W3C//DTD SVG 1.1//EN" "http://www.w3.org/Graphics/SVG/1.1/DTD/svg11.dtd"><svg class="icon" width="200px" height="200.00px" viewBox="0 0 1024 1024" version="1.1" xmlns="http://www.w3.org/2000/svg"><path fill="#ffffff" d="M938.016 326.496c2.4 4.768 2.4 9.568 4.768 14.336 57.44 224.928-78.976 488.096-313.472 626.912C732.224 828.96 772.896 663.872 736.992 515.52a237.376 237.376 0 0 0-11.936-38.272 218.144 218.144 0 0 0-19.904 12.416l0.704-0.48S473.792 632.768 224.992 883.968c-7.2 7.168 133.984-200.96 291.872-366.08C442.72 560.992 232.16 711.68 100.512 833.76c14.368-26.336 35.936-52.64 57.44-78.976C268.032 613.6 411.616 441.344 583.904 309.76c-122.016-74.24-291.936-78.976-464.224 0C76.576 328.864 40.736 352.8 0.032 381.536c71.776-112.48 184.224-215.392 318.24-270.368 160.288-69.408 322.976-64.64 440.224 0h2.432c4.768 2.4 9.568 4.768 14.336 9.568 57.44 28.704 169.888 59.808 232.096-59.808 16.736-33.504 47.84 122.016-69.376 265.6l0.032-0.032z"  /></svg>