<?xml version="1.0" standalone="no"?><!DOCTYPE svg PUBLIC "-//W3C//DTD SVG 1.1//EN" "http://www.w3.org/Graphics/SVG/1.1/DTD/svg11.dtd"><svg class="icon" width="200px" height="200.00px" viewBox="0 0 1024 1024" version="1.1" xmlns="http://www.w3.org/2000/svg"><path d="M469.6 354.4c0 42.8 16 81.8 42.4 111.6 26.4-29.6 42.4-68.8 42.4-111.6s-16-81.8-42.4-111.6c-26.4 29.6-42.4 68.8-42.4 111.6z" fill="#FEFE71" /><path d="M469.6 354.4c0 42.8 16 81.8 42.4 111.6V242.8c-26.4 29.6-42.4 68.8-42.4 111.6z" fill="#D6CD1E" /><path d="M512 479.8c-4 0-7.8-1.8-10.4-4.8-29.6-33.4-46-76.2-46-120.8s16.4-87.4 46-120.8c2.6-3 6.4-4.8 10.4-4.8s7.8 1.8 10.4 4.8c29.6 33.4 46 76.2 46 120.8s-16.4 87.4-46 120.8c-2.6 3.2-6.4 4.8-10.4 4.8z m0-214.6c-18.4 26-28.4 57-28.4 89s10 63.2 28.4 89c18.4-26 28.4-57 28.4-89s-10-63-28.4-89z" fill="#463218" /><path d="M469.6 669.6c0 42.8 16 81.8 42.4 111.6 26.4-29.6 42.4-68.8 42.4-111.6s-16-81.8-42.4-111.6c-26.4 29.8-42.4 68.8-42.4 111.6z" fill="#FEFE71" /><path d="M469.6 669.6c0 42.8 16 81.8 42.4 111.6V558.2c-26.4 29.6-42.4 68.6-42.4 111.4z" fill="#D6CD1E" /><path d="M512 795.2c-4 0-7.8-1.8-10.4-4.8-29.6-33.4-46-76.2-46-120.8s16.4-87.4 46-120.8c2.6-3 6.4-4.8 10.4-4.8s7.8 1.8 10.4 4.8c29.6 33.4 46 76.2 46 120.8s-16.4 87.4-46 120.8c-2.6 3.2-6.4 4.8-10.4 4.8z m0-214.6c-18.4 26-28.4 57-28.4 89s10 63.2 28.4 89c18.4-26 28.4-57 28.4-89s-10-63-28.4-89z" fill="#463218" /><path d="M669.6 469.6c-42.8 0-81.8 16-111.6 42.4 29.6 26.4 68.8 42.4 111.6 42.4s81.8-16 111.6-42.4c-29.6-26.4-68.8-42.4-111.6-42.4z" fill="#FEFE71" /><path d="M669.6 469.6c-42.8 0-81.8 16-111.6 42.4h223.2c-29.6-26.4-68.8-42.4-111.6-42.4z" fill="#D6CD1E" /><path d="M669.6 568.4c-44.6 0-87.4-16.4-120.8-46-3-2.6-4.8-6.4-4.8-10.4s1.8-7.8 4.8-10.4c33.4-29.6 76.2-46 120.8-46 44.6 0 87.4 16.4 120.8 46 3 2.6 4.8 6.4 4.8 10.4s-1.8 7.8-4.8 10.4c-33.2 29.6-76.2 46-120.8 46zM580.6 512c26 18.4 57 28.4 89 28.4s63.2-10 89-28.4c-26-18.4-57-28.4-89-28.4s-63 10-89 28.4z" fill="#463218" /><path d="M354.4 469.6c-42.8 0-81.8 16-111.6 42.4 29.6 26.4 68.8 42.4 111.6 42.4s81.8-16 111.6-42.4c-29.8-26.4-68.8-42.4-111.6-42.4z" fill="#FEFE71" /><path d="M354.4 469.6c-42.8 0-81.8 16-111.6 42.4H466c-29.8-26.4-68.8-42.4-111.6-42.4z" fill="#D6CD1E" /><path d="M354.4 568.4c-44.6 0-87.4-16.4-120.8-46-3-2.6-4.8-6.4-4.8-10.4s1.8-7.8 4.8-10.4c33.4-29.6 76.2-46 120.8-46 44.6 0 87.4 16.4 120.8 46 3 2.6 4.8 6.4 4.8 10.4s-1.8 7.8-4.8 10.4c-33.4 29.6-76.4 46-120.8 46zM265.2 512c26 18.4 57 28.4 89 28.4s63.2-10 89-28.4c-26-18.4-57-28.4-89-28.4s-63 10-89 28.4z" fill="#463218" /><path d="M653.4 593.6c-30.2-30.2-69.2-46.6-108.8-49 2.4 39.6 18.6 78.6 49 108.8 30.2 30.2 69.2 46.6 108.8 49-2.4-39.6-18.6-78.6-49-108.8z" fill="#FEFE71" /><path d="M653.4 593.6c-30.2-30.2-69.2-46.6-108.8-49l157.8 157.8c-2.4-39.6-18.6-78.6-49-108.8z" fill="#D6CD1E" /><path d="M702.4 716.4h-0.8c-44.6-2.6-86.4-21.4-118-53-31.6-31.6-50.4-73.4-53-118-0.2-4 1.2-8 4-10.8s6.8-4.4 10.8-4c44.6 2.6 86.4 21.4 118 53 31.6 31.6 50.4 73.4 53 118 0.2 4-1.2 8-4 10.8-2.8 2.6-6.4 4-10 4z m-141.8-155.8c5.4 31.4 20.2 60.4 43 83 22.6 22.6 51.8 37.6 83 43-5.4-31.4-20.2-60.4-43-83-22.8-22.8-51.8-37.8-83-43z" fill="#463218" /><path d="M430.4 370.6c-30.2-30.2-69.2-46.6-108.8-49 2.4 39.6 18.6 78.6 49 108.8 30.2 30.2 69.2 46.6 108.8 49-2.4-39.6-18.6-78.6-49-108.8z" fill="#FEFE71" /><path d="M430.4 370.6c-30.2-30.2-69.2-46.6-108.8-49l157.8 157.8c-2.4-39.6-18.6-78.6-49-108.8z" fill="#D6CD1E" /><path d="M479.4 493.4h-0.8c-44.6-2.6-86.4-21.4-118-53-31.6-31.6-50.4-73.4-53-118-0.2-4 1.2-8 4-10.8 2.8-2.8 6.8-4.4 10.8-4 44.6 2.6 86.4 21.4 118 53 31.6 31.6 50.4 73.4 53 118 0.2 4-1.2 8-4 10.8-2.8 2.6-6.4 4-10 4z m-141.8-155.8c5.4 31.4 20.2 60.4 43 83 22.6 22.6 51.8 37.6 83 43-5.4-31.4-20.2-60.4-43-83-22.8-22.8-51.8-37.8-83-43z" fill="#463218" /><path d="M430.4 653.4c30.2-30.2 46.6-69.2 49-108.8-39.6 2.4-78.6 18.6-108.8 49-30.2 30.2-46.6 69.2-49 108.8 39.6-2.4 78.6-18.6 108.8-49z" fill="#FEFE71" /><path d="M430.4 653.4c30.2-30.2 46.6-69.2 49-108.8l-157.8 157.8c39.6-2.4 78.6-18.6 108.8-49z" fill="#D6CD1E" /><path d="M321.6 716.4c-3.8 0-7.2-1.4-9.8-4.2-2.8-2.8-4.4-6.8-4-10.8 2.6-44.6 21.4-86.4 53-118 31.6-31.6 73.4-50.4 118-53 4-0.2 8 1.2 10.8 4 2.8 2.8 4.4 6.8 4 10.8-2.6 44.6-21.4 86.4-53 118-31.6 31.6-73.4 50.4-118 53-0.4 0.2-0.8 0.2-1 0.2z m141.8-155.8c-31.4 5.4-60.4 20.2-83 43-22.6 22.6-37.6 51.8-43 83 31.4-5.4 60.4-20.2 83-43 22.8-22.8 37.8-51.8 43-83z m-33 92.8z" fill="#463218" /><path d="M653.4 430.4c30.2-30.2 46.6-69.2 49-108.8-39.6 2.4-78.6 18.6-108.8 49-30.2 30.2-46.6 69.2-49 108.8 39.6-2.4 78.6-18.6 108.8-49z" fill="#FEFE71" /><path d="M653.4 430.4c30.2-30.2 46.6-69.2 49-108.8l-157.8 157.8c39.6-2.4 78.6-18.6 108.8-49z" fill="#D6CD1E" /><path d="M544.6 493.4c-3.8 0-7.2-1.4-9.8-4.2-2.8-2.8-4.4-6.8-4-10.8 2.6-44.6 21.4-86.4 53-118 31.6-31.6 73.4-50.4 118-53 4-0.2 8 1.2 10.8 4 2.8 2.8 4.4 6.8 4 10.8-2.6 44.6-21.4 86.4-53 118-31.6 31.6-73.4 50.4-118 53-0.4 0.2-0.8 0.2-1 0.2z m141.8-155.8c-31.4 5.4-60.4 20.2-83 43-22.6 22.6-37.6 51.8-43 83 31.4-5.4 60.4-20.2 83-43 22.8-22.8 37.8-51.8 43-83z" fill="#463218" /><path d="M512 512m-94.6 0a94.6 94.6 0 1 0 189.2 0 94.6 94.6 0 1 0-189.2 0Z" fill="#FE8E46" /><path d="M536 488m-70.6 0a70.6 70.6 0 1 0 141.2 0 70.6 70.6 0 1 0-141.2 0Z" fill="#E56823" /><path d="M512 620.6c-60 0-108.6-48.8-108.6-108.6s48.8-108.6 108.6-108.6 108.6 48.8 108.6 108.6-48.6 108.6-108.6 108.6z m0-189.2c-44.4 0-80.6 36.2-80.6 80.6s36.2 80.6 80.6 80.6 80.6-36.2 80.6-80.6-36.2-80.6-80.6-80.6z" fill="#463218" /><path d="M534 474.2c-6.6-3.8-14.2-6-22-6v-20c11.2 0 22.4 3 32 8.6l-10 17.4zM575.6 512h-20c0-11.6-4.6-22.6-12.8-30.8l14.2-14.2c12 12 18.6 28 18.6 45z" fill="#FFFFFF" /></svg>