<?xml version="1.0" standalone="no"?><!DOCTYPE svg PUBLIC "-//W3C//DTD SVG 1.1//EN" "http://www.w3.org/Graphics/SVG/1.1/DTD/svg11.dtd"><svg t="1744251217892" class="icon" viewBox="0 0 1025 1024" version="1.1" xmlns="http://www.w3.org/2000/svg" p-id="3202" xmlns:xlink="http://www.w3.org/1999/xlink" width="200.1953125" height="200"><path d="M664.501323 360.070367a129.992175 129.992175 0 0 1 0 182.996853L221.595895 985.214897A129.272311 129.272311 0 1 1 38.977918 802.218044L481.504469 359.691492a129.651187 129.651187 0 0 1 182.996854 0.378875zM162.870197 861.322617a47.814085 47.814085 0 1 0-67.818709 67.439834 47.814085 47.814085 0 0 0 67.818709-67.439834z m0 0l372.43459-372.434589A285.823656 285.823656 0 0 1 817.945889 11.883808a17.276722 17.276722 0 0 1 6.819758 23.869155l-157.612196 157.233321 21.217026 143.214928 142.836053 21.217027 157.233322-157.233321a16.897846 16.897846 0 0 1 23.869154 6.819758 285.558444 285.558444 0 0 1-477.004219 281.883352z m0 0" fill="#d81e06" p-id="3203"></path></svg>