<?xml version="1.0" standalone="no"?><!DOCTYPE svg PUBLIC "-//W3C//DTD SVG 1.1//EN" "http://www.w3.org/Graphics/SVG/1.1/DTD/svg11.dtd"><svg t="1744250378671" class="icon" viewBox="0 0 1024 1024" version="1.1" xmlns="http://www.w3.org/2000/svg" p-id="16045" xmlns:xlink="http://www.w3.org/1999/xlink" width="200" height="200"><path d="M580.266667 804.977778l173.511111-145.066667V247.466667c0-17.066667-11.377778-28.444444-28.444445-28.444445H301.511111c-17.066667 0-28.444444 11.377778-28.444444 28.444445v531.911111c0 17.066667 11.377778 28.444444 28.444444 28.444444h278.755556z" fill="#BAD4FF" p-id="16046"></path><path d="M588.8 833.422222H301.511111c-31.288889 0-56.888889-25.6-56.888889-56.888889V247.466667c0-31.288889 25.6-56.888889 56.888889-56.888889h423.822222c31.288889 0 56.888889 25.6 56.888889 56.888889v426.666666l-193.422222 159.288889zM301.511111 247.466667v531.911111H568.888889l153.6-130.844445V247.466667H301.511111z" fill="#2380FF" p-id="16047"></path><path d="M389.688889 429.511111l42.666667 56.888889c5.688889 8.533333 2.844444 17.066667-2.844445 22.755556-8.533333 5.688889-17.066667 2.844444-22.755555-2.844445l-51.2-65.422222c-5.688889-5.688889-5.688889-14.222222 0-19.911111l51.2-65.422222c2.844444-5.688889 8.533333-8.533333 17.066666-5.688889 5.688889 0 11.377778 5.688889 14.222222 11.377777s2.844444 11.377778-2.844444 17.066667l-45.511111 51.2z m204.8 56.888889c-5.688889 8.533333-2.844444 17.066667 2.844444 22.755556s17.066667 2.844444 22.755556-2.844445l51.2-65.422222c5.688889-5.688889 5.688889-14.222222 0-19.911111l-51.2-65.422222c-2.844444-5.688889-8.533333-8.533333-17.066667-5.688889-5.688889 0-11.377778 5.688889-14.222222 11.377777-2.844444 5.688889-2.844444 11.377778 2.844444 17.066667l42.666667 56.888889-39.822222 51.2z m-82.488889 14.222222c-2.844444 8.533333-11.377778 14.222222-19.911111 11.377778s-14.222222-11.377778-14.222222-19.911111L512 341.333333c2.844444-8.533333 11.377778-14.222222 19.911111-11.377777 8.533333 2.844444 14.222222 11.377778 14.222222 19.911111L512 500.622222z m341.333333 227.555556c11.377778-11.377778 31.288889-8.533333 42.666667 2.844444 11.377778 11.377778 8.533333 31.288889-2.844444 42.666667l-207.644445 184.888889c-5.688889 5.688889-11.377778 8.533333-19.911111 8.533333H213.333333c-51.2 0-93.866667-42.666667-93.866666-96.711111V153.6C119.466667 102.4 162.133333 56.888889 213.333333 56.888889h597.333334c51.2 0 93.866667 42.666667 93.866666 96.711111v128c0 17.066667-14.222222 31.288889-31.288889 31.288889s-31.288889-14.222222-31.288888-31.288889V153.6c0-19.911111-14.222222-34.133333-34.133334-34.133333h-597.333333c-17.066667 0-34.133333 14.222222-34.133333 34.133333v716.8c0 19.911111 14.222222 34.133333 34.133333 34.133333H654.222222l199.111111-176.355555z m51.2 19.911111c0 17.066667-14.222222 31.288889-31.288889 31.288889s-31.288889-14.222222-31.288888-31.288889v-85.333333c0-17.066667 14.222222-31.288889 31.288888-31.288889s31.288889 14.222222 31.288889 31.288889v85.333333z" fill="#2380FF" p-id="16048"></path></svg>