<?xml version="1.0" standalone="no"?><!DOCTYPE svg PUBLIC "-//W3C//DTD SVG 1.1//EN" "http://www.w3.org/Graphics/SVG/1.1/DTD/svg11.dtd"><svg t="1744248958013" class="icon" viewBox="0 0 1024 1024" version="1.1" xmlns="http://www.w3.org/2000/svg" p-id="8818" xmlns:xlink="http://www.w3.org/1999/xlink" width="200" height="200"><path d="M827.733333 981.333333H68.266667C29.866667 981.333333 0 951.466667 0 913.066667V324.266667C0 285.866667 29.866667 256 68.266667 256H213.333333c21.333333 0 42.666667 12.8 55.466667 29.866667L375.466667 384h448c38.4 0 68.266667 29.866667 68.266666 68.266667v456.533333c4.266667 42.666667-25.6 72.533333-64 72.533333z" fill="#1C91FF" p-id="8819"></path><path d="M878.933333 981.333333H72.533333c-17.066667 0-25.6-17.066667-21.333333-29.866666L170.666667 512h853.333333l-123.733333 452.266667c-4.266667 8.533333-12.8 17.066667-21.333334 17.066666z" fill="#01C9FF" p-id="8820"></path><path d="M640 290.133333c0-59.733333-34.133333-115.2-89.6-140.8l-213.333333-93.866666L426.666667 145.066667c29.866667 29.866667 42.666667 68.266667 42.666666 106.666666v38.4H337.066667l217.6 170.666667 217.6-170.666667H640z" fill="#7752F4" p-id="8821"></path><path d="M554.666667 482.133333l-268.8-213.333333h166.4v-17.066667c0-38.4-12.8-72.533333-38.4-98.133333L256 0l298.666667 132.266667c55.466667 25.6 93.866667 76.8 102.4 140.8h170.666666L554.666667 482.133333zM388.266667 307.2l166.4 128 166.4-128h-98.133334v-17.066667c0-55.466667-29.866667-102.4-81.066666-123.733333L418.133333 110.933333l21.333334 21.333334c34.133333 34.133333 51.2 76.8 51.2 123.733333v55.466667H388.266667z" fill="#FFFFFF" p-id="8822"></path></svg>