<?xml version="1.0" standalone="no"?><!DOCTYPE svg PUBLIC "-//W3C//DTD SVG 1.1//EN" "http://www.w3.org/Graphics/SVG/1.1/DTD/svg11.dtd"><svg class="icon" width="200px" height="200.00px" viewBox="0 0 1024 1024" version="1.1" xmlns="http://www.w3.org/2000/svg"><path d="M706.776338 775.470873c-14.061972-43.277907-54.21431-70.76726-97.385078-70.761078-13.334664-41.060958-51.886101-70.752837-97.39126-70.752837s-84.056596 29.691879-97.39126 70.752837c-43.170769-0.006181-83.323107 27.483171-97.385078 70.761078-14.061972 43.277907 2.264338 89.118905 37.193658 114.488145-13.347026 41.056837 0.389408 87.738463 37.20396 114.486085s85.457642 25.385722 120.37872 0.006181c34.923139 25.381602 83.564169 26.741441 120.37872-0.006181 36.814551-26.747622 50.550986-73.429247 37.20396-114.486085 34.92932-25.369239 51.25563-71.208177 37.193658-114.488145z" fill="#FF5383" /><path d="M706.776338 775.470873c-14.061972-43.277907-54.21431-70.76726-97.385078-70.761078-13.334664-41.060958-51.886101-70.752837-97.39126-70.752837-7.058801 0-13.948652 0.717006-20.603622 2.076845 36.254133 7.409062 65.521577 33.983614 76.787638 68.675992 43.170769-0.006181 83.323107 27.483171 97.385079 70.761078 14.061972 43.277907-2.264338 89.118905-37.193658 114.488145 13.347026 41.056837-0.389408 87.738463-37.20396 114.486085a101.94672 101.94672 0 0 1-39.53423 17.453328c27.182358 5.571219 56.519855 0.142165 80.741473-17.453328 36.814551-26.747622 50.550986-73.429247 37.20396-114.486085 34.92932-25.369239 51.25563-71.208177 37.193658-114.488145z" fill="#FF2464" /><path d="M964.585336 483.707107c-24.948926-18.557682-58.19493-17.999324-82.249658-0.925103-23.66738-17.609915-56.89072-18.912064-82.249658-0.918922-25.358938 17.993143-35.10239 49.784531-26.296402 77.939381-24.060909 17.06598-35.565972 48.261924-26.290222 77.94144 9.275751 29.677457 36.501376 48.768773 65.997522 49.09431 8.795686 28.156909 34.908716 48.739928 66.001641 49.088129 31.092926 0.348201 57.661296-19.643493 67.085393-47.596427 29.496145 0.335839 57.142085-18.139429 67.081271-47.602607 9.939187-29.463179-0.863292-60.908427-24.536853-78.510101 9.434398-27.950873 0.405891-59.952419-24.543034-78.5101z" fill="#00B2A5" /><path d="M989.130431 562.215147c9.434398-27.948813 0.405891-59.950358-24.543035-78.50804-18.592708-13.829151-41.788266-17.028893-62.358921-10.703582a69.74326 69.74326 0 0 1 21.151678 10.703582c24.948926 18.557682 33.977433 50.559227 24.543034 78.50804 23.671501 17.601674 34.47604 49.048982 24.536853 78.5101-9.939187 29.463179-37.585127 47.938447-67.081271 47.602608a70.136789 70.136789 0 0 1-45.709135 44.507944 69.908089 69.908089 0 0 0 19.830986 3.088483c31.092926 0.348201 57.661296-19.643493 67.085392-47.596427 29.496145 0.335839 57.142085-18.139429 67.081272-47.602608 9.937127-29.461119-0.865352-60.908427-24.536853-78.5101z" fill="#2D858E" /><path d="M476.609159 20.158584C300.481159 34.939622 152.221618 159.820233 107.682769 330.906527a15.452716 15.452716 0 0 0 14.96647 19.350922 15.460958 15.460958 0 0 0 14.943807-11.562753C178.833256 180.275509 316.111066 64.641803 479.192853 50.954817a15.450656 15.450656 0 0 0 14.10524-16.690994 15.434173 15.434173 0 0 0-16.688934-14.105239zM916.31105 330.894165C871.774262 159.830535 723.531203 34.958165 547.429988 20.160644c-8.525779-0.729368-15.978109 5.600064-16.693054 14.105239a15.452716 15.452716 0 0 0 14.105239 16.693055c163.059123 13.699348 300.322511 129.326873 341.56272 287.721336a15.456837 15.456837 0 0 0 18.848194 11.060024 15.452716 15.452716 0 0 0 11.057963-18.846133z" fill="#B7462F" /><path d="M512.00206 34.13402m-34.13402 0a34.13402 34.13402 0 1 0 68.26804 0 34.13402 34.13402 0 1 0-68.26804 0Z" fill="#059B8C" /><path d="M768 746.77827m-68.26804 0a68.26804 68.26804 0 1 0 136.53608 0 68.26804 68.26804 0 1 0-136.53608 0Z" fill="#A7F1F8" /><path d="M768 678.510229c-7.182423 0-14.101119 1.116716-20.603622 3.170898 27.631517 8.737996 47.664419 34.574938 47.664419 65.095082 0 30.522205-20.032901 56.357087-47.664419 65.095083a68.214471 68.214471 0 0 0 20.603622 3.170897c37.702567 0 68.26804-30.565473 68.26804-68.26804s-30.565473-68.26392-68.26804-68.26392z" fill="#0BE5F3" /><path d="M912.614761 402.131187m-68.268041 0a68.26804 68.26804 0 1 0 136.536081 0 68.26804 68.26804 0 1 0-136.536081 0Z" fill="#A7F1F8" /><path d="M912.614761 333.865207c-7.182423 0-14.101119 1.116716-20.603622 3.170898 27.631517 8.737996 47.664419 34.574938 47.664418 65.095082 0 30.522205-20.032901 56.357087-47.664418 65.095083a68.214471 68.214471 0 0 0 20.603622 3.170897c37.702567 0 68.26804-30.565473 68.26804-68.26804s-30.565473-68.26392-68.26804-68.26392z" fill="#0BE5F3" /><path d="M59.414664 483.707107c24.948926-18.557682 58.19493-17.999324 82.249658-0.925103 23.66738-17.609915 56.89072-18.912064 82.249658-0.918922 25.358938 17.993143 35.10239 49.784531 26.296402 77.939381 24.060909 17.06598 35.565972 48.261924 26.290222 77.94144-9.275751 29.677457-36.501376 48.768773-65.997522 49.09431-8.795686 28.156909-34.910777 48.739928-66.001641 49.088129-31.092926 0.348201-57.661296-19.643493-67.085393-47.596427-29.496145 0.335839-57.142085-18.139429-67.081271-47.602607-9.939187-29.463179 0.865352-60.908427 24.536853-78.510101-9.434398-27.950873-0.405891-59.952419 24.543034-78.5101z" fill="#00B2A5" /><path d="M250.212443 559.802463c8.803928-28.154849-0.937465-59.946237-26.296403-77.939381-18.413457-13.064757-40.95794-15.908056-60.994962-9.772297a69.873062 69.873062 0 0 1 19.787719 9.772297c25.358938 17.993143 35.10239 49.784531 26.296402 77.939381 24.060909 17.06598 35.565972 48.261924 26.290222 77.94144-9.275751 29.677457-36.501376 48.768773-65.997522 49.09431-6.844523 21.907831-24.172169 39.225175-46.170656 45.999646a69.821553 69.821553 0 0 0 21.376258 3.088483c31.092926-0.348201 57.205956-20.931219 66.001642-49.088129 29.498205-0.325537 56.721771-19.416853 65.997521-49.09431 9.275751-29.679517-2.229312-60.875461-26.290221-77.94144z" fill="#2D858E" /><path d="M527.452716 753.424998a15.452716 15.452716 0 0 0-30.905432 0v34.13608a15.452716 15.452716 0 0 0 30.905432 0v-34.13608zM463.313642 838.392274a15.454777 15.454777 0 0 0 4.771799-30.153401l-32.465127-10.549054a15.452716 15.452716 0 0 0-9.549779 29.391066l32.465127 10.549055c1.586479 0.519211 3.195622 0.762334 4.77798 0.762334zM490.990487 867.674141a15.452716 15.452716 0 0 0-21.584354 3.420201l-20.063807 27.617095a15.452716 15.452716 0 0 0 25.004555 18.166213l20.063807-27.617095a15.456837 15.456837 0 0 0-3.420201-21.586414zM554.593867 871.092282a15.452716 15.452716 0 0 0-25.002495 18.166213l20.065867 27.617095a15.427992 15.427992 0 0 0 12.51464 6.370639 15.452716 15.452716 0 0 0 12.487855-24.536853l-20.065867-27.617094zM588.383807 797.691879l-32.465127 10.549055a15.450656 15.450656 0 0 0-9.920644 19.470422 15.463018 15.463018 0 0 0 14.692443 10.682978c1.582358 0 3.191501-0.245183 4.77798-0.760274l32.465127-10.549054a15.448596 15.448596 0 0 0 9.920643-19.470422 15.452716 15.452716 0 0 0-19.470422-9.922705z" fill="#FF2464" /><path d="M848.220201 576.402801a15.432113 15.432113 0 0 0 12.615598 6.512805 15.366181 15.366181 0 0 0 8.927549-2.851542 15.452716 15.452716 0 0 0 3.661264-21.543146l-13.497433-19.023324a15.452716 15.452716 0 0 0-25.206471 17.883943l13.499493 19.021264zM843.067235 591.678326l-22.264273 6.957843a15.452716 15.452716 0 0 0-10.139042 19.359163 15.458897 15.458897 0 0 0 14.743951 10.847807c1.526728 0 3.080241-0.2287 4.615211-0.706704l22.264274-6.959904a15.452716 15.452716 0 1 0-9.220121-29.498205zM880.848097 615.520837c-8.466028-0.121561-15.52895 6.743565-15.625787 15.279646l-0.261666 23.3233a15.452716 15.452716 0 0 0 15.279646 15.623726h0.177191a15.452716 15.452716 0 0 0 15.448595-15.279646l0.261666-23.3233a15.452716 15.452716 0 0 0-15.279645-15.623726zM941.255855 599.987767l-22.101505-7.456451a15.452716 15.452716 0 0 0-9.879437 29.283927l22.101506 7.456451a15.442414 15.442414 0 0 0 4.940748 0.815904 15.452716 15.452716 0 0 0 4.938688-30.099831zM892.724024 580.32161a15.386785 15.386785 0 0 0 9.209819 3.055517 15.432113 15.432113 0 0 0 12.411622-6.230535l13.919807-18.71633a15.452716 15.452716 0 0 0-3.177079-21.621441 15.452716 15.452716 0 0 0-21.62144 3.177078l-13.919807 18.71633a15.450656 15.450656 0 0 0 3.177078 21.619381zM154.234592 580.064064a15.378543 15.378543 0 0 0 8.929609 2.851542 15.432113 15.432113 0 0 0 12.615598-6.512805l13.497432-19.023324a15.452716 15.452716 0 0 0-25.20647-17.883944l-13.497433 19.023324a15.454777 15.454777 0 0 0 3.661264 21.545207zM203.194978 598.638229l-22.264274-6.957843a15.458897 15.458897 0 0 0-19.359163 10.139043 15.454777 15.454777 0 0 0 10.139043 19.359163l22.264273 6.959903a15.493924 15.493924 0 0 0 4.615211 0.706704 15.458897 15.458897 0 0 0 14.743952-10.847807 15.450656 15.450656 0 0 0-10.139042-19.359163zM143.329095 615.518777l-0.177192 0.00206a15.450656 15.450656 0 0 0-15.277585 15.623726l0.261666 23.3233a15.452716 15.452716 0 0 0 15.448595 15.279646h0.177192a15.452716 15.452716 0 0 0 15.279645-15.623726l-0.261665-23.3233a15.456837 15.456837 0 0 0-15.450656-15.281706zM104.84771 592.531316l-22.101505 7.456451a15.452716 15.452716 0 1 0 9.879437 29.281867l22.103565-7.456451a15.452716 15.452716 0 1 0-9.881497-29.281867zM109.656596 577.144531a15.427992 15.427992 0 0 0 12.409561 6.230535 15.452716 15.452716 0 0 0 12.386897-24.676957l-13.921867-18.71633a15.450656 15.450656 0 0 0-21.621441-3.177079 15.452716 15.452716 0 0 0-3.177078 21.621441l13.923928 18.71839z" fill="#2D858E" /><path d="M256 746.77827m-68.26804 0a68.26804 68.26804 0 1 0 136.53608 0 68.26804 68.26804 0 1 0-136.53608 0Z" fill="#A7F1F8" /><path d="M255.874318 678.510229c-7.182423 0-14.101119 1.116716-20.603622 3.170898 27.631517 8.737996 47.664419 34.574938 47.664419 65.095082 0 30.522205-20.032901 56.357087-47.664419 65.095083a68.214471 68.214471 0 0 0 20.603622 3.170897c37.702567 0 68.26804-30.565473 68.26804-68.26804s-30.565473-68.26392-68.26804-68.26392z" fill="#0BE5F3" /><path d="M111.385239 402.131187m-68.26804 0a68.26804 68.26804 0 1 0 136.536081 0 68.26804 68.26804 0 1 0-136.536081 0Z" fill="#A7F1F8" /><path d="M512.00206 838.756958m-51.195879 0a51.195879 51.195879 0 1 0 102.391759 0 51.195879 51.195879 0 1 0-102.391759 0Z" fill="#FFC065" /><path d="M881.066495 595.990664m-34.982889 0a34.982889 34.982889 0 1 0 69.965778 0 34.982889 34.982889 0 1 0-69.965778 0Z" fill="#FFC065" /><path d="M142.933505 595.990664m-34.982889 0a34.982889 34.982889 0 1 0 69.965778 0 34.982889 34.982889 0 1 0-69.965778 0Z" fill="#FFC065" /><path d="M111.385239 333.865207c-7.182423 0-14.101119 1.116716-20.603621 3.170898 27.631517 8.737996 47.664419 34.574938 47.664418 65.095082 0 30.522205-20.032901 56.357087-47.664418 65.095083a68.214471 68.214471 0 0 0 20.603621 3.170897c37.702567 0 68.26804-30.565473 68.268041-68.26804s-30.563412-68.26392-68.268041-68.26392z" fill="#0BE5F3" /></svg>