<?xml version="1.0" standalone="no"?><!DOCTYPE svg PUBLIC "-//W3C//DTD SVG 1.1//EN" "http://www.w3.org/Graphics/SVG/1.1/DTD/svg11.dtd"><svg class="icon" width="200px" height="200.00px" viewBox="0 0 1024 1024" version="1.1" xmlns="http://www.w3.org/2000/svg"><path d="M337.294 635.125c-13.188 2.476-18.282 34.335-11.384 71.162 6.9 36.835 23.18 64.693 36.367 62.217 13.186-2.468 18.288-34.327 11.39-71.162-6.9-36.828-23.18-64.687-36.373-62.22z m-113.013 7.102c-11.954 6.1-7.844 38.099 9.171 71.482 17.022 33.39 40.507 55.513 52.467 49.419 11.954-6.1 7.844-38.1-9.18-71.49-17.015-33.382-40.507-55.505-52.458-49.413z m95.543 128.403c-12.295-5.376-34.419 18.107-49.428 52.443-15 34.335-17.202 66.522-4.906 71.898 12.297 5.374 34.429-18.11 49.429-52.445 15.007-34.335 17.203-66.522 4.905-71.898z m89.936 11.6c-12.29-5.374-34.42 18.11-49.429 52.444-15 34.336-17.195 66.53-4.905 71.899 12.295 5.374 34.429-18.104 49.428-52.445 15.008-34.335 17.202-66.523 4.906-71.898z m0 0" fill="#AEDE7B" /><path d="M484.235 830.932a14.926 14.926 0 0 1-9.562-3.453c-4.336-3.586-30.1-20.686-68.279-32.672-48.202-15.123-95.537-16.427-140.708-3.866a15 15 0 0 1-8.032-28.905c115.045-31.985 215.543 25.263 236.158 42.349a14.988 14.988 0 0 1 1.978 21.118 14.96 14.96 0 0 1-11.555 5.43z m0 0" fill="#8EC15D" /><path d="M620.873 686.302c-12.407 5.11-10.883 37.343 3.39 71.992 14.28 34.647 35.906 58.59 48.32 53.475 12.405-5.11 10.881-37.343-3.39-71.99-14.282-34.648-35.906-58.593-48.32-53.477z m93.542-43.263c-13.03 3.202-16.34 35.295-7.403 71.684 8.943 36.391 26.757 63.297 39.787 60.093s16.343-35.295 7.405-71.687c-8.943-36.389-26.755-63.294-39.787-60.09z m-83.934 204.737c-6.116 11.944 15.97 35.467 49.327 52.539s65.359 21.225 71.476 9.288c6.108-11.946-15.977-35.47-49.334-52.547-33.36-17.07-65.359-21.226-71.469-9.28z m88.114-52.413c-6.116 11.944 15.97 35.467 49.33 52.539 33.358 17.076 65.358 21.232 71.473 9.288 6.11-11.946-15.975-35.47-49.334-52.547-33.36-17.07-65.359-21.225-71.467-9.28z m0 0" fill="#AEDE7B" /><path d="M561.967 946.828a15 15 0 0 1-13.93-20.562C559.89 896.546 604.03 820.59 757.604 757.3a15.004 15.004 0 0 1 11.43 27.741c-146.997 60.571-184.99 131.92-193.13 152.341a15.02 15.02 0 0 1-13.937 9.446z m0 0" fill="#8EC15D" /><path d="M589.544 1023.998c-11.444 0-22.787-5-30.521-14.618-98.304-122.363-98.304-256.33-98.304-300.359v-397.95c0-21.602 17.516-39.12 39.117-39.12 21.61 0 39.117 17.518 39.117 39.12v397.95c0 41.155 0 150.465 81.059 251.36 13.531 16.844 10.845 41.46-5.99 54.991a38.947 38.947 0 0 1-24.478 8.626z m0 0" fill="#B4DE87" /><path d="M505.328 659.772a119.757 119.757 0 0 0 33.631 15.274V311.068c0-21.6-17.513-39.115-39.115-39.115-21.61 0-39.117 17.516-39.117 39.115v366.47a119.407 119.407 0 0 0 44.601-17.766z m0 0" fill="#92D18A" /><path d="M505.328 317.342c-28.623 7.664-47.827 34.507-45.843 64.069l1.25 18.703a656.085 656.085 0 0 0 40.241 186.362c13.406 35.781 51.79 55.53 88.694 45.639 36.905-9.88 60.273-46.179 53.991-83.872a655.969 655.969 0 0 0-58.327-181.512l-8.273-16.827c-13.062-26.594-43.116-40.234-71.733-32.56z m0 0" fill="#F4BC76" /><path d="M505.328 317.342c7.664 28.618 34.507 47.82 64.069 45.843l18.703-1.25a656.095 656.095 0 0 0 186.362-40.249c35.781-13.406 55.53-51.779 45.639-88.686-9.88-36.905-46.179-60.272-83.864-53.99a656.019 656.019 0 0 0-181.52 58.326l-16.828 8.266c-26.593 13.07-40.233 43.117-32.559 71.74z m0 0" fill="#F7D378" /><path d="M505.328 317.342c28.617-7.672 47.82-34.507 45.843-64.068l-1.25-18.712A656.153 656.153 0 0 0 509.672 48.2c-13.406-35.773-51.779-55.522-88.686-45.632-36.905 9.883-60.273 46.178-53.99 83.866a656.019 656.019 0 0 0 58.326 181.52l8.266 16.827c13.07 26.585 43.117 40.225 71.74 32.561z m0 0" fill="#F4BC76" /><path d="M505.328 317.342c-7.672-28.617-34.507-47.827-64.068-45.843l-18.712 1.25a656.14 656.14 0 0 0-186.362 40.241c-35.773 13.406-55.522 51.79-45.639 88.694 9.89 36.905 46.185 60.273 83.872 53.991a656.019 656.019 0 0 0 181.52-58.327l16.828-8.273c26.585-13.07 40.225-43.115 32.561-71.733z m0 0" fill="#F7D378" /><path d="M505.328 317.342c-7.672 28.618 5.968 58.67 32.561 71.733l16.828 8.273a656.019 656.019 0 0 0 181.52 58.327c37.687 6.28 73.982-17.086 83.866-53.99 9.89-36.906-9.86-75.289-45.633-88.695a656.14 656.14 0 0 0-186.362-40.239l-18.711-1.252c-29.562-1.984-56.405 17.22-64.069 45.843z m0 0" fill="#F4BC76" /><path d="M505.328 317.342c28.617 7.672 58.67-5.976 71.733-32.561l8.273-16.828a656.019 656.019 0 0 0 58.327-181.52c6.28-37.687-17.086-73.982-53.99-83.871-36.906-9.884-75.29 9.865-88.695 45.638a656.085 656.085 0 0 0-40.239 186.362l-1.252 18.712c-1.984 29.561 17.22 56.398 45.843 64.068z m0 0" fill="#F7D378" /><path d="M505.328 317.342c7.664-28.617-5.976-58.67-32.561-71.74l-16.828-8.266a656.019 656.019 0 0 0-181.52-58.327c-37.687-6.28-73.982 17.088-83.872 53.991-9.883 36.905 9.866 75.278 45.64 88.686a656.095 656.095 0 0 0 186.361 40.25l18.712 1.25c29.56 1.975 56.398-17.226 64.068-45.844z m0 0" fill="#F4BC76" /><path d="M505.328 317.342c-28.623-7.672-58.67 5.968-71.74 32.562l-8.266 16.827a656.019 656.019 0 0 0-58.327 181.52c-6.28 37.687 17.086 73.982 53.991 83.866 36.905 9.89 75.278-9.86 88.686-45.633a656.153 656.153 0 0 0 40.25-186.362l1.25-18.711c1.975-29.562-17.227-56.405-45.844-64.069z m0 0" fill="#F7D378" /><path d="M505.328 317.342c-20.951 20.954-24.163 53.797-7.672 78.404l10.438 15.58a655.9 655.9 0 0 0 128.037 141.269c29.5 24.28 72.614 22.195 99.63-4.82 27.015-27.015 29.1-70.132 4.82-99.632A656.105 656.105 0 0 0 599.31 320.106l-15.578-10.436c-24.615-16.491-57.45-13.28-78.404 7.672z m0 0" fill="#F7D378" /><path d="M505.328 317.342c20.954 20.954 53.797 24.164 78.404 7.664l15.58-10.438a655.865 655.865 0 0 0 141.269-128.027c24.28-29.5 22.195-72.616-4.82-99.631-27.016-27.014-70.133-29.1-99.632-4.82a656.105 656.105 0 0 0-128.037 141.27l-10.436 15.578c-16.491 24.61-13.28 57.453 7.672 78.404z m0 0" fill="#F4BC76" /><path d="M505.328 317.342c20.954-20.951 24.164-53.795 7.664-78.404l-10.438-15.58A655.865 655.865 0 0 0 374.527 82.09c-29.5-24.28-72.616-22.194-99.632 4.82-27.013 27.015-29.107 70.132-4.82 99.631a655.865 655.865 0 0 0 141.271 128.027l15.578 10.44c24.61 16.5 57.453 13.28 78.404-7.666z m0 0" fill="#F7D378" /><path d="M505.328 317.342c-20.951-20.951-53.795-24.163-78.404-7.672l-15.58 10.438a655.9 655.9 0 0 0-141.268 128.037c-24.288 29.5-22.202 72.615 4.82 99.63 27.015 27.015 70.132 29.1 99.631 4.82a655.865 655.865 0 0 0 128.027-141.27l10.44-15.579c16.5-24.607 13.288-57.458-7.666-78.404z m0 0" fill="#F4BC76" /><path d="M569.203 311.068c0 38.306-31.056 69.359-69.359 69.359s-69.358-31.053-69.358-69.359 31.055-69.358 69.358-69.358 69.359 31.055 69.359 69.358z m0 0" fill="#D6A17A" /><path d="M482.665 243.868a68.986 68.986 0 0 0-31.868 18.156c-27.085 27.085-27.085 70.998 0 98.083 25.376 25.374 65.515 26.976 92.758 4.812-77.336-2.952-95.742-85.052-60.89-121.051z m0 0" fill="#BD8860" /></svg>