<?xml version="1.0" standalone="no"?><!DOCTYPE svg PUBLIC "-//W3C//DTD SVG 1.1//EN" "http://www.w3.org/Graphics/SVG/1.1/DTD/svg11.dtd"><svg class="icon" width="200px" height="200.00px" viewBox="0 0 1024 1024" version="1.1" xmlns="http://www.w3.org/2000/svg"><path d="M924.501333 542.506667a42.154667 42.154667 0 0 1 0 24.32A338.986667 338.986667 0 0 1 597.333333 810.666667a338.261333 338.261333 0 0 1-264.362666-126.293334A127.872 127.872 0 0 1 213.333333 768H128a42.666667 42.666667 0 0 1-42.666667-42.666667v-85.333333c0-32.896 12.842667-62.634667 33.28-85.333333A127.146667 127.146667 0 0 1 85.333333 469.333333V384a42.666667 42.666667 0 0 1 42.666667-42.666667h85.333333c54.954667 0 101.504 34.944 119.637334 83.626667A335.914667 335.914667 0 0 1 426.666667 344.661333V170.666667a42.666667 42.666667 0 0 1 42.666666-42.666667h85.333334c117.632 0 213.333333 95.701333 213.333333 213.333333v3.328a338.688 338.688 0 0 1 156.501333 197.845334zM597.333333 725.333333a254.122667 254.122667 0 0 0 241.450667-170.666666A254.122667 254.122667 0 0 0 597.333333 384a254.122667 254.122667 0 0 0-241.450666 170.666667A254.122667 254.122667 0 0 0 597.333333 725.333333zM512 213.333333v97.024A344.277333 344.277333 0 0 1 597.333333 298.666667c27.861333 0 54.698667 4.309333 80.768 10.581333A127.829333 127.829333 0 0 0 554.666667 213.333333h-42.666667zM256 640v-42.666667H213.333333c-23.509333 0-42.666667 19.157333-42.666666 42.666667v42.666667h42.666666c23.509333 0 42.666667-19.157333 42.666667-42.666667z m-85.333333-213.333333v42.666666c0 23.509333 19.157333 42.666667 42.666666 42.666667h42.666667v-42.666667c0-23.509333-19.157333-42.666667-42.666667-42.666666H170.666667z m512 42.666666a42.666667 42.666667 0 1 1 0 85.333334 42.666667 42.666667 0 0 1 0-85.333334z" fill="#000000" /></svg>