<?xml version="1.0" standalone="no"?><!DOCTYPE svg PUBLIC "-//W3C//DTD SVG 1.1//EN" "http://www.w3.org/Graphics/SVG/1.1/DTD/svg11.dtd"><svg class="icon" width="200px" height="200.00px" viewBox="0 0 1024 1024" version="1.1" xmlns="http://www.w3.org/2000/svg"><path d="M549.479739 345.51634c42.164706-81.484967 127.163399-157.615686 300.005228-144.062745 8.366013 0.669281 15.226144 5.521569 18.572549 13.385621 87.173856 197.772549 3.848366 406.253595-146.739869 474.0183 0 0-9.537255-112.104575-54.044444-199.780392-39.152941-77.803922-117.793464-143.560784-117.793464-143.560784z" fill="#AAD36A" /><path d="M783.393464 658.572549c-3.681046 0-7.362092-1.673203-10.039216-4.684967-4.517647-5.521569-3.681046-13.720261 1.840523-18.070589 9.537255-7.696732 18.405229-16.397386 27.105883-25.6 4.852288-5.186928 13.05098-5.521569 18.070588-0.669281 5.186928 4.852288 5.521569 13.05098 0.669281 18.070589-9.369935 10.039216-19.24183 19.24183-29.615686 27.775163-2.342484 2.175163-5.186928 3.179085-8.031373 3.179085z m53.040523-56.888889c-2.509804 0-5.354248-0.836601-7.529412-2.342484-5.856209-4.183007-7.027451-12.214379-2.844444-17.903268 73.620915-101.396078 85.333333-241.610458 30.284967-365.929411-1.505882-3.346405-4.183007-5.354248-7.864052-5.688889-138.039216-10.708497-234.750327 35.471895-287.62353 137.202614-3.179085 6.19085-11.043137 8.867974-17.401307 5.521569-6.19085-3.179085-8.867974-11.043137-5.521568-17.401307 25.6-49.359477 61.239216-87.173856 106.081045-112.941177 55.215686-31.623529 124.820915-44.50719 206.305883-37.981699 13.218301 1.003922 24.094118 8.867974 29.448366 20.915033 58.394771 132.684967 45.845752 282.603922-33.129412 391.362091-2.342484 3.346405-6.35817 5.186928-10.206536 5.186928z" fill="#101010" /><path d="M726.504575 444.737255c-2.677124 0-5.688889-1.003922-7.864052-2.677124-5.688889-4.350327-6.52549-12.54902-2.007843-17.903268C778.039216 346.352941 857.014379 229.898039 884.454902 118.462745c1.840523-6.860131 8.700654-11.043137 15.560784-9.369935 6.860131 1.840523 11.043137 8.700654 9.369935 15.560785-28.779085 115.952941-109.762092 235.586928-172.67451 315.566013-2.677124 2.844444-6.35817 4.517647-10.206536 4.517647zM691.36732 924.109804c-1.840523 0-3.513725-0.16732-5.354248-0.334641-181.207843-26.269281-319.74902-87.341176-411.105882-181.375163-5.019608-5.186928-4.852288-13.218301 0.33464-18.070588 5.186928-5.019608 13.218301-4.852288 18.070588 0.33464 87.341176 89.85098 220.862745 148.413072 396.3817 173.845752 5.019608 0.836601 9.871895-2.677124 10.708496-7.864052 35.806536-203.963399-9.202614-384.501961-126.326797-508.318955-97.715033-103.236601-238.264052-154.938562-375.968627-138.708496-4.015686 0.501961-6.860131 3.011765-8.031373 7.027451-14.389542 54.713725-53.542484 246.128105 51.534641 409.098039 3.848366 6.023529 2.007843 13.887582-3.848366 17.903268-6.023529 3.848366-13.887582 2.007843-17.903268-3.848366-110.766013-171.670588-69.939869-372.287582-54.881046-429.511111 3.848366-14.222222 15.226144-24.261438 29.783006-25.934641 71.278431-8.533333 145.233987 0.16732 213.500654 25.098039 69.270588 25.265359 132.852288 67.095425 184.052287 121.30719 122.980392 129.840523 170.164706 318.243137 133.186929 530.405229-2.677124 17.066667-17.233987 28.946405-34.133334 28.946405z" fill="#101010" /><path d="M537.098039 715.963399c-2.844444 0-6.023529-1.003922-8.366013-3.011765-6.19085-5.521569-12.71634-10.875817-18.907189-16.732026-5.354248-4.684967-5.856209-12.88366-1.003922-18.070588 4.684967-5.354248 12.88366-5.856209 18.070588-1.003922 6.19085 5.521569 12.54902 11.043137 18.572549 16.230065 5.521569 4.684967 6.023529 12.71634 1.505883 18.070589-2.509804 3.179085-6.19085 4.517647-9.871896 4.517647z m-53.877124-49.192157c-3.179085 0-6.35817-1.171242-8.867974-3.513726-11.043137-10.708497-22.253595-21.918954-33.296732-33.296732-5.019608-5.186928-4.852288-13.218301 0.334641-18.070588 5.186928-5.019608 13.218301-4.852288 18.070588 0.334641 10.708497 11.043137 21.751634 21.918954 32.627451 32.627451 5.186928 5.019608 5.354248 13.05098 0.33464 18.070588-2.509804 2.677124-5.856209 3.848366-9.202614 3.848366zM409.934641 590.807843c-3.513725 0-7.027451-1.505882-9.704576-4.350327-180.036601-202.290196-271.393464-417.631373-275.074509-426.666666-2.844444-6.35817 0-13.887582 6.52549-16.899347 6.35817-2.844444 14.054902 0.16732 17.066666 6.52549 0 0.16732 0.16732 0.334641 0.167321 0.334641 3.681046 8.867974 93.532026 220.528105 270.891503 419.471895 4.684967 5.354248 4.183007 13.552941-1.003922 18.070589-2.677124 2.342484-5.688889 3.513725-8.867973 3.513725z" fill="#101010" /></svg>