<?xml version="1.0" standalone="no"?><!DOCTYPE svg PUBLIC "-//W3C//DTD SVG 1.1//EN" "http://www.w3.org/Graphics/SVG/1.1/DTD/svg11.dtd"><svg t="1744247927774" class="icon" viewBox="0 0 1024 1024" version="1.1" xmlns="http://www.w3.org/2000/svg" p-id="3443" xmlns:xlink="http://www.w3.org/1999/xlink" width="200" height="200"><path d="M991.597714 423.448381c-3.632762 0.633905-6.89981 2.218667-9.557333 4.242286-0.731429-4.120381-4.681143-6.89981-8.825905-6.168381-2.925714 0.512-5.144381 2.608762-5.948952 5.217524-19.748571 0.828952-43.056762 3.413333-67.82781 7.777524-21.284571 3.754667-41.130667 8.387048-58.246095 13.409524l-9.362286-53.052952c-0.975238-5.534476-6.265905-9.216-11.800381-8.240762l-4.949333 0.877714c-5.558857 0.975238-9.240381 6.241524-8.265143 11.776l8.825905 50.029714-158.281143 27.91619 64.414476-37.180952 53.272381-60.099048-78.677333 16.091429-64.414476 37.180952 103.326476-123.12381 38.912 32.646095c4.315429 3.608381 10.703238 3.047619 14.336-1.26781l3.242667-3.85219c3.632762-4.315429 3.072-10.727619-1.243429-14.336l-41.276952-34.620952c12.897524-12.312381 26.819048-27.184762 40.71619-43.739429 16.164571-19.260952 30.061714-38.15619 40.667429-54.857143 2.681905 0.609524 5.607619-0.292571 7.509333-2.535619 2.730667-3.242667 2.29181-8.021333-1.072762-10.849524 3.242667-1.170286 6.241524-3.193905 8.606476-6.022095 7.216762-8.606476 6.095238-21.406476-2.511238-28.623238-8.606476-7.216762-21.406476-6.095238-28.623238 2.511238-2.389333 2.82819-3.85219 6.119619-4.583619 9.411048-3.218286-2.706286-8.021333-2.267429-10.727619 0.950857-1.901714 2.267429-2.267429 5.290667-1.194667 7.826286-14.57981 13.336381-30.793143 30.305524-46.957714 49.566476-13.897143 16.554667-26.112 32.865524-36.010667 47.689143l-41.276952-34.620952c-4.315429-3.608381-10.703238-3.047619-14.336 1.26781l-3.242667 3.85219c-3.632762 4.315429-3.072 10.727619 1.243429 14.336l38.912 32.646095-103.326476 123.12381 25.429333-69.90019 2.194286-80.286476-49.93219 62.902857-25.429333 69.90019L545.304381 222.47619l50.785524 0c5.632 0 10.166857-4.559238 10.166857-10.191238L606.256762 207.262476c0-5.632-4.559238-10.191238-10.166857-10.191238l-53.881905 0c1.974857-17.724952 3.072-38.058667 3.072-59.684571 0-25.136762-1.511619-48.566857-4.120381-68.144762 2.438095-1.26781 4.120381-3.82781 4.120381-6.777905 0-4.242286-3.413333-7.606857-7.801905-7.606857 1.731048-2.998857 2.706286-6.460952 2.706286-10.166857 0-11.215238-9.094095-20.309333-20.309333-20.309333-11.215238 0-20.309333 9.094095-20.309333 20.309333 0 3.705905 0.999619 7.168 2.535619 10.166857-4.193524 0-7.606857 3.413333-7.606857 7.606857 0 2.974476 1.657905 5.510095 4.120381 6.777905-2.608762 19.602286-4.120381 43.008-4.120381 68.144762 0 21.625905 1.121524 41.959619 3.072 59.684571l-53.881905 0c-5.632 0-10.166857 4.559238-10.166857 10.191238l0 5.022476c0 5.632 4.559238 10.191238 10.166857 10.191238l50.785524 0 0 160.719238-25.429333-69.90019-49.93219-62.902857 2.194286 80.286476 25.429333 69.90019-103.302095-123.12381 38.912-32.646095c4.315429-3.608381 4.85181-10.020571 1.243429-14.336l-3.242667-3.85219c-3.632762-4.315429-10.020571-4.87619-14.336-1.26781l-41.276952 34.620952c-9.898667-14.848-22.113524-31.134476-36.010667-47.689143-16.164571-19.260952-32.377905-36.230095-46.957714-49.566476C242.883048 160.182857 242.517333 157.135238 240.615619 154.89219 237.909333 151.649524 233.106286 151.235048 229.741714 154.063238 229.156571 150.649905 227.693714 147.358476 225.304381 144.530286 218.087619 135.94819 205.263238 134.802286 196.681143 142.019048S186.953143 162.06019 194.169905 170.642286c2.389333 2.82819 5.36381 4.85181 8.46019 6.168381C199.43619 179.492571 198.997333 184.32 201.703619 187.538286c1.901714 2.267429 4.827429 3.145143 7.509333 2.535619 10.605714 16.676571 24.502857 35.59619 40.643048 54.857143 13.897143 16.554667 27.818667 31.427048 40.71619 43.739429l-41.276952 34.620952c-4.315429 3.608381-4.85181 10.020571-1.243429 14.336l3.242667 3.85219c3.632762 4.315429 10.020571 4.87619 14.336 1.26781l38.912-32.646095 103.326476 123.12381-64.414476-37.180952-78.677333-16.091429 53.272381 60.099048 64.414476 37.180952-158.281143-27.91619 8.825905-50.029714c0.975238-5.534476-2.730667-10.800762-8.265143-11.776l-4.949333-0.877714c-5.558857-0.975238-10.825143 2.706286-11.800381 8.240762l-9.362286 53.052952c-17.115429-5.022476-36.961524-9.654857-58.246095-13.409524-24.771048-4.36419-48.079238-6.948571-67.82781-7.777524-0.828952-2.633143-3.047619-4.705524-5.948952-5.217524-4.169143-0.731429-8.094476 2.023619-8.850286 6.363429-2.633143-2.218667-5.90019-3.803429-9.532952-4.437333-11.044571-1.950476-21.577143 5.436952-23.527619 16.481524-1.950476 11.044571 5.436952 21.577143 16.481524 23.527619 3.632762 0.633905 7.241143 0.26819 10.435048-0.731429-0.731429 4.120381 2.048 8.070095 6.192762 8.801524 2.925714 0.512 5.729524-0.682667 7.387429-2.876952 18.846476 5.973333 41.642667 11.50781 66.389333 15.872 21.284571 3.754667 41.496381 6.192762 59.318857 7.338667l-9.362286 53.052952c-0.975238 5.534476 2.730667 10.800762 8.265143 11.776l4.949333 0.877714c5.558857 0.975238 10.825143-2.706286 11.800381-8.240762l8.825905-50.029714 158.281143 27.91619-73.240381 12.921905-70.631619 38.229333 79.433143 11.776 73.240381-12.921905-139.190857 80.359619-25.404952-43.983238c-2.80381-4.87619-9.020952-6.509714-13.897143-3.705905L199.631238 612.449524c-4.87619 2.82819-6.534095 9.020952-3.730286 13.897143l26.940952 46.665143c-16.335238 7.168-34.499048 16.359619-53.223619 27.160381-21.77219 12.580571-41.301333 25.575619-56.953905 37.64419-2.31619-1.487238-5.36381-1.657905-7.92381-0.170667-3.657143 2.121143-4.900571 6.753524-2.706286 10.556952-3.462095 0-6.948571 0.877714-10.166857 2.730667-9.728 5.607619-13.04381 18.041905-7.43619 27.745524 5.607619 9.728 18.041905 13.04381 27.745524 7.43619 3.193905-1.852952 5.705143-4.437333 7.533714-7.265524 2.096762 3.632762 6.753524 4.87619 10.410667 2.779429 2.56-1.487238 3.949714-4.193524 3.803429-6.948571 18.261333-7.558095 39.302095-17.944381 61.074286-30.500571 18.724571-10.800762 35.766857-21.942857 50.151619-32.49981l26.940952 46.665143c2.80381 4.87619 9.020952 6.509714 13.897143 3.705905l4.36419-2.511238c4.87619-2.82819 6.534095-9.020952 3.730286-13.897143l-25.404952-43.983238 139.190857-80.359619-47.811048 56.978286-29.525333 74.678857 68.437333-42.032762 47.811048-56.978286-54.979048 151.04-47.737905-17.383619c-5.290667-1.926095-11.117714 0.804571-13.019429 6.095238l-1.731048 4.729905c-1.926095 5.290667 0.78019 11.117714 6.070857 13.04381l50.639238 18.432c-7.92381 15.993905-15.920762 34.718476-23.30819 55.02781-8.606476 23.625143-15.189333 46.153143-19.456 65.438476-2.730667 0.365714-5.168762 2.194286-6.168381 4.949333-1.438476 3.974095 0.585143 8.313905 4.729905 9.825524-2.657524 2.218667-4.754286 5.144381-6.022095 8.606476-3.82781 10.532571 1.609143 22.211048 12.141714 26.038857 10.532571 3.82781 22.211048-1.609143 26.038857-12.141714 1.26781-3.486476 1.511619-7.070476 1.097143-10.410667 3.949714 1.438476 8.313905-0.609524 9.752381-4.559238 1.024-2.779429 0.316952-5.753905-1.536-7.777524 9.142857-17.529905 18.578286-39.009524 27.160381-62.634667 7.387429-20.309333 13.287619-39.814095 17.505524-57.148952l50.639238 18.432c5.290667 1.926095 11.117714-0.804571 13.019429-6.095238l1.731048-4.729905c1.926095-5.315048-0.78019-11.117714-6.070857-13.04381l-47.737905-17.383619 54.979048-151.04 0 74.386286 25.404952 76.190476 25.404952-76.190476 0-74.386286 54.979048 151.04-47.737905 17.383619c-5.290667 1.926095-7.996952 7.753143-6.070857 13.04381l1.731048 4.729905c1.926095 5.315048 7.753143 8.021333 13.019429 6.095238l50.639238-18.432c4.217905 17.334857 10.118095 36.815238 17.505524 57.148952 8.606476 23.625143 18.017524 45.104762 27.184762 62.634667-1.852952 2.023619-2.56 4.998095-1.560381 7.777524 1.438476 3.974095 5.802667 5.997714 9.923048 4.486095-0.609524 3.388952-0.341333 6.997333 0.926476 10.48381 3.82781 10.532571 15.506286 15.969524 26.038857 12.141714 10.532571-3.82781 15.993905-15.506286 12.141714-26.038857-1.26781-3.486476-3.388952-6.38781-5.851429-8.679619 3.949714-1.438476 5.973333-5.802667 4.534857-9.752381-1.024-2.779429-3.462095-4.608-6.192762-4.949333-4.266667-19.309714-10.849524-41.813333-19.431619-65.438476-7.387429-20.309333-15.408762-39.033905-23.30819-55.02781l50.639238-18.432c5.290667-1.926095 7.996952-7.753143 6.070857-13.04381l-1.731048-4.729905c-1.926095-5.290667-7.753143-8.021333-13.019429-6.095238l-47.737905 17.383619-54.979048-151.04 47.811048 56.978286 68.437333 42.032762-29.525333-74.678857-47.811048-56.978286 139.190857 80.359619-25.404952 43.983238c-2.80381 4.87619-1.121524 11.068952 3.730286 13.897143l4.36419 2.511238c4.87619 2.82819 11.093333 1.145905 13.897143-3.705905l26.940952-46.665143c14.360381 10.556952 31.427048 21.699048 50.151619 32.49981 21.77219 12.580571 42.812952 22.966857 61.074286 30.524952-0.121905 2.755048 1.243429 5.461333 3.803429 6.948571 3.681524 2.121143 8.289524 0.853333 10.50819-2.950095 1.731048 2.998857 4.242286 5.583238 7.43619 7.43619 9.728 5.607619 22.137905 2.29181 27.745524-7.43619s2.29181-22.137905-7.43619-27.745524c-3.193905-1.852952-6.704762-2.730667-10.069333-2.901333 2.096762-3.632762 0.853333-8.289524-2.80381-10.386286-2.56-1.487238-5.607619-1.316571-7.92381 0.170667-15.676952-12.04419-35.181714-25.063619-56.953905-37.64419-18.724571-10.800762-36.888381-20.016762-53.223619-27.160381l26.940952-46.665143c2.80381-4.87619 1.121524-11.068952-3.730286-13.897143l-4.36419-2.511238c-4.87619-2.82819-11.093333-1.145905-13.897143 3.705905l-25.404952 43.983238-139.190857-80.359619 73.240381 12.921905 79.433143-11.776-70.631619-38.229333-73.240381-12.921905 158.281143-27.91619 8.825905 50.029714c0.975238 5.534476 6.265905 9.216 11.800381 8.240762l4.949333-0.877714c5.558857-0.975238 9.240381-6.241524 8.265143-11.776l-9.362286-53.052952c17.798095-1.145905 38.034286-3.584 59.318857-7.338667 24.771048-4.36419 47.567238-9.923048 66.413714-15.872 1.682286 2.194286 4.486095 3.388952 7.387429 2.876952 4.169143-0.731429 6.92419-4.681143 6.144-8.996571 3.242667 1.194667 6.826667 1.560381 10.48381 0.902095 11.044571-1.950476 18.432-12.483048 16.481524-23.527619S1002.642286 421.497905 991.597714 423.448381z" p-id="3444"></path></svg>