<?xml version="1.0" standalone="no"?><!DOCTYPE svg PUBLIC "-//W3C//DTD SVG 1.1//EN" "http://www.w3.org/Graphics/SVG/1.1/DTD/svg11.dtd"><svg t="1743229027950" class="icon" viewBox="0 0 1024 1024" version="1.1" xmlns="http://www.w3.org/2000/svg" p-id="3107" xmlns:xlink="http://www.w3.org/1999/xlink" width="200" height="200"><path d="M477.72 418.86C465.37 342.26 409.88 0 525.51 0c87.59 0 27.88 310.41 27.88 410.8 0-91.74 101.87-393.31 192.59-359.87 116.69 43-111.16 341.26-136.85 372C663.21 354.52 884.41 172 955.56 241.7c90.31 88.55-252.44 234.58-302.56 237.56 90.9 0 368.25-49.54 368.52 53C1021.75 641.7 678.4 558 653 547.73c82.26 41.6 364.84 151.49 294.72 252.36-69.07 99.37-303.2-157.21-330.58-196 26 74.35 223.55 350.94 95.59 386.64-115.91 36.37-148.07-315.52-167.27-370.53-6.46 90.49 53.17 397.63-59.46 403.71-122.42 6.62-38-355-24.18-399.66-23.51 87.19-92.45 367.64-195 346.91-128.89-26 68.39-291.61 139.27-375.11-52.65 35.47-323.7 300.43-374.41 189.3C-8.89 689.6 310.54 557.77 366.21 543.7 284.9 555.45 2.61 594 2.53 485.2c-0.07-103.94 326.28-9 367.66 2.12-69.56-41-345.35-131-307.53-226.44C116.47 125.1 383.05 388.49 406 435c-42.5-75.31-236.71-318.55-134.9-382 111-69.14 200.62 311.35 206.62 365.83" fill="#E6809B" p-id="3108"></path><path d="M489.06 393.33c6.55-25.12 10.93-51.63 14.61-78.51s6.7-54.22 10.71-81.27c4 27.05 9 53.78 13.39 81s8.07 54.86 9.26 83.6zM431.9 427.76c-10.16-25.92-18.6-51.76-26.9-77.51s-16.28-51.25-25.75-76.49c16.5 21.34 32 43.7 47.39 65.78s30.86 43.92 47.13 64.34zM384.94 482.43a179.52 179.52 0 0 0-11.33-14.19c-4.15-4.64-8.61-9.21-13.29-13.73-9.4-9-19.7-17.82-30.09-26.9-5.2-4.54-10.37-9.17-15.53-14-1.29-1.23-2.61-2.41-3.86-3.66l-3.68-3.73-7.16-7.37c-9.5-9.82-18.82-19.62-29.12-28.6 12.48 5.6 24.53 12.42 36.47 19.05l8.93 4.95 4.4 2.39c1.46 0.77 2.95 1.47 4.42 2.2 5.93 2.91 12 5.75 18.2 8.52 12.33 5.56 25 11.07 37.75 17.53 6.38 3.26 12.78 6.75 19.15 10.6a227.32 227.32 0 0 1 18.85 12.88zM376.29 540.41c-6.38-0.78-12.4-1.73-18.24-2.83l-4.39-0.81-4.33-0.87q-4.33-0.85-8.61-1.78c-11.43-2.43-22.71-5-33.94-7.78s-22.39-5.59-33.52-8.57-22.21-6.07-33.16-9.48c11.45-0.57 22.83-1.5 34.2-2.52s22.72-2.2 34-3.48 22.57-2.7 33.71-4.3c2.79-0.39 5.56-0.81 8.31-1.24l4.13-0.65 4.08-0.7c5.45-0.91 10.72-2 15.63-3.15zM407.84 584.61a160.34 160.34 0 0 1-21.18 11.09c-7 3.06-13.9 5.65-20.71 8-13.62 4.75-26.95 8.63-39.8 12.9-1.61 0.52-3.32 1.14-5 1.71s-3.34 1.08-5 1.62l-4.8 1.57-4.79 1.66c-6.38 2.28-12.79 4.79-19.24 7.34-12.88 5.09-25.92 10.4-39.21 14.46 11.57-7.7 22.27-16.3 33.2-24.91 5.47-4.3 11-8.62 16.73-12.83l4.34-3.13 4.4-3c1.42-1 2.88-1.91 4.25-2.93s2.73-2 4.19-3c11.66-8.16 23.35-15.71 34.17-23.55 5.4-3.91 10.59-7.87 15.35-11.93a114 114 0 0 0 12.65-12.42zM456.22 629.1c-7 11.19-14.23 22.44-21.71 33.52s-15.26 22-23.35 32.57a626.37 626.37 0 0 1-52 59.7A615.84 615.84 0 0 0 390 683.62c4.32-12.08 8.23-24.24 11.83-36.51S408.74 622.48 412 610zM521 640.8c-1.25 12.48-3.23 24.42-5.5 36.11s-4.83 23.09-7.5 34.45l-8 33.77c-2.55 11.23-5 22.47-7 33.87-2-11.4-3.55-23-5-34.49L484 710c-1.36-11.44-2.8-22.79-4.55-33.9s-3.82-22-6.47-32.27zM598.89 603.51a368 368 0 0 1 9.83 38.49c2.57 12.75 4.59 25.4 6.33 38s3.18 25.1 4.58 37.56 2.75 24.89 4.47 37.31c-5.56-11.24-10.81-22.69-16.08-34.06s-10.54-22.68-16-33.78-11.16-22-17.17-32.44a323.59 323.59 0 0 0-19.18-29.8zM638.61 548.42q25.25 23.73 48.31 49.08a576.32 576.32 0 0 1 42.87 52.85 565.8 565.8 0 0 0-57.62-33.79c-19.68-10.13-39.72-19.36-59.92-27.78zM632.57 497.65c9.63 2.69 20.32 4.77 31.09 6.64s21.8 3.49 32.87 5l33.34 4.57c11.13 1.59 22.32 3.14 33.37 5.14-11 2-21.93 4.47-32.86 6.93l-32.86 7.47c-11 2.47-22.08 4.86-33.37 7s-22.73 4.13-35.15 5.28zM600.45 444.28c22.58-7.83 45.24-18 68-28.59s45.81-21.62 69.34-30.69c-19.47 16-37.4 33.35-55.83 50.66s-37.28 34.69-58.32 50.86zM548.66 401.31c9.18-8.94 18.1-18.18 26.6-27.87s16.59-19.84 24.35-30.44 15.26-21.71 23-32.8 15.66-22.09 24.27-32.39c-5.18 12.4-9.43 25-13.46 37.72s-7.91 25.62-12.37 38.57-9.47 25.91-15.17 38.66-12 25.27-18.69 37.61z" fill="#EEADBE" p-id="3109"></path><path d="M414.67 418.42C280.29 529.15 458.38 759.9 611.48 611.63c113-109.42-58.31-321.58-196.81-193.21" fill="#4F3746" p-id="3110"></path><path d="M559.23 570.9c26.45 20.46-8.63 63.08-38.79 35.69-22.25-20.21 11.47-59.41 38.79-35.69M489.24 444c26.48 20.46-8.62 63.08-38.8 35.7-22.22-20.23 11.5-59.42 38.8-35.7M571.49 431.25c31.31 24.17-10.16 74.55-45.81 42.18-26.29-23.88 13.6-70.2 45.81-42.18M453.34 506.17c26.48 20.46-8.6 63.07-38.76 35.69-22.25-20.21 11.47-59.41 38.76-35.69M598.71 506.18c26.45 20.45-8.63 63.08-38.8 35.68-22.24-20.2 11.51-59.4 38.8-35.68M521.63 508.56c24 18.76-7.83 57.84-35.17 32.73-20.19-18.52 10.41-54.45 35.17-32.73M482.32 573.59c22.41 17.49-7.28 53.94-32.8 30.52-18.84-17.28 9.73-50.79 32.8-30.52" fill="#8B99CF" p-id="3111"></path></svg>