<?xml version="1.0" standalone="no"?><!DOCTYPE svg PUBLIC "-//W3C//DTD SVG 1.1//EN" "http://www.w3.org/Graphics/SVG/1.1/DTD/svg11.dtd"><svg class="icon" width="200px" height="200.00px" viewBox="0 0 1024 1024" version="1.1" xmlns="http://www.w3.org/2000/svg"><path fill="#ffffff" d="M361.344 588.544c7.296 0 14.122667-0.469333 20.949333-1.450667A153.6 153.6 0 0 0 524.202667 682.666667a153.6 153.6 0 0 0 141.866666-95.573334 153.386667 153.386667 0 0 0 174.08-151.637333A154.026667 154.026667 0 0 0 807.509333 341.333333a151.04 151.04 0 0 0 32.64-94.122666 153.386667 153.386667 0 0 0-174.08-151.637334A153.6 153.6 0 0 0 524.202667 0 153.6 153.6 0 0 0 382.293333 95.573333a153.386667 153.386667 0 0 0-174.08 151.637334c0 34.645333 12.202667 67.797333 32.682667 94.122666a151.509333 151.509333 0 0 0-33.152 94.122667 153.472 153.472 0 0 0 153.6 153.088z m162.858667-3.413333a55.466667 55.466667 0 0 1-55.594667-53.632l5.845333-53.162667c15.616 5.888 32.170667 9.301333 49.749334 9.301333 17.536 0 34.602667-3.413333 50.218666-9.301333l5.376 53.162667a55.466667 55.466667 0 0 1-55.594666 53.632z m162.858666-94.08c-11.690667 0-22.442667-3.413333-31.232-9.770667l-39.466666-27.776a145.194667 145.194667 0 0 0 51.669333-89.258667l42.922667 20.48c19.498667 9.258667 32.170667 28.757333 32.170666 50.218667 0 31.232-25.344 56.106667-56.064 56.106667zM655.36 201.386667c9.770667-6.357333 20.48-9.770667 31.701333-9.770667 30.72 0 55.594667 24.874667 55.594667 55.594667 0 21.461333-12.202667 40.490667-32.213333 50.218666l-42.88 20.48a143.573333 143.573333 0 0 0-52.181334-89.216l39.978667-27.306666z m-131.157333-103.850667a55.466667 55.466667 0 0 1 55.594666 53.632l-5.376 53.162667a143.488 143.488 0 0 0-50.218666-9.301334c-17.578667 0-34.133333 3.413333-49.749334 9.301334l-5.845333-53.162667a55.466667 55.466667 0 0 1 55.594667-53.632zM361.344 191.573333c11.690667 0 22.4 3.413333 31.189333 9.770667l39.509334 27.306667a145.194667 145.194667 0 0 0-51.712 89.216l-42.88-20.48c-19.541333-9.728-32.213333-28.757333-32.213334-50.218667 0-30.72 25.386667-55.594667 56.106667-55.594667z m-23.893333 193.621334l42.88-20.48a143.616 143.616 0 0 0 52.181333 89.216l-39.509333 26.837333c-9.728 6.314667-20.48 9.728-31.658667 9.728-30.72 0-55.594667-24.874667-55.594667-55.594667-0.512-20.949333 12.16-39.978667 31.701334-49.706666zM524.202667 1024c242.346667 0 438.826667-196.522667 438.826666-438.869333-242.346667 0-438.826667 196.522667-438.826666 438.869333z m118.954666-118.997333a341.973333 341.973333 0 0 1 200.917334-200.874667 343.296 343.296 0 0 1-200.917334 200.874667zM85.333333 585.130667C85.333333 827.477333 281.856 1024 524.202667 1024c0-242.346667-196.522667-438.869333-438.869334-438.869333z m118.997334 118.997333a341.973333 341.973333 0 0 1 200.874666 200.874667 343.253333 343.253333 0 0 1-200.874666-200.874667z"  /></svg>