<?xml version="1.0" standalone="no"?><!DOCTYPE svg PUBLIC "-//W3C//DTD SVG 1.1//EN" "http://www.w3.org/Graphics/SVG/1.1/DTD/svg11.dtd"><svg class="icon" width="200px" height="200.00px" viewBox="0 0 1024 1024" version="1.1" xmlns="http://www.w3.org/2000/svg"><path d="M670.6 798.2H353.4c-32.6 0-61.2-21.8-70-53.2l-41.8-151.6h540.6l-41.8 151.6c-8.6 31.4-37.2 53.2-69.8 53.2z" fill="#FE8E46" /><path d="M430.8 744.8l-41.8-151.6h-147.4l41.8 151.6c8.6 31.4 37.2 53.2 70 53.2h147.4c-32.6 0.2-61.2-21.6-70-53.2z" fill="#E56823" /><path d="M670.6 812.2H353.4c-38.8 0-73-26.2-83.4-63.6l-41.8-151.6c-1.2-4.2-0.2-8.8 2.4-12.2 2.6-3.4 6.8-5.6 11.2-5.6h540.6c4.4 0 8.4 2 11.2 5.6 2.6 3.4 3.6 8 2.4 12.2l-42 151.6c-10.4 37.4-44.6 63.6-83.4 63.6zM260 607.4l37 133.8c7 25.2 30.2 43 56.4 43h317.2c26.2 0 49.4-17.6 56.4-43l37-133.8H260z" fill="#463218" /><path d="M675.632 741.78l14.724-48.826 19.148 5.774-14.724 48.826z" fill="#FFFFFF" /><path d="M374 607.4c-7.8 0-14-6.2-14-14v-194c0-7.8 6.2-14 14-14s14 6.2 14 14v194c0 7.6-6.4 14-14 14z" fill="#463218" /><path d="M473.8 435.4c-26.4-8.8-56.6-2.8-77.6 18.2-21 21-27 51.2-18.2 77.6 26.4 8.8 56.6 2.8 77.6-18.2 20.8-21 27-51.2 18.2-77.6z" fill="#7DAC51" /><path d="M274.2 435.4c26.4-8.8 56.6-2.8 77.6 18.2 21 21 27 51.2 18.2 77.6-26.4 8.8-56.6 2.8-77.6-18.2-21-21-27-51.2-18.2-77.6z" fill="#7DAC51" /><path d="M402.2 549.2c-9.6 0-19.2-1.6-28.8-4.8-4.2-1.4-7.4-4.6-8.8-8.8-10.8-32.6-2.6-67.8 21.6-92 24.2-24.2 59.4-32.6 92-21.6 4.2 1.4 7.4 4.6 8.8 8.8 10.8 32.6 2.6 67.8-21.6 92-17.2 17.2-40 26.4-63.2 26.4z m-13-29.4c20.4 4.4 41.4-1.8 56.4-16.8s21-36 16.8-56.4c-20.4-4.4-41.4 1.8-56.4 16.8s-21 36-16.8 56.4z" fill="#463218" /><path d="M345.8 549.2c-23.4 0-46-9.2-63.2-26.4-24.2-24.2-32.6-59.4-21.6-92 1.4-4.2 4.6-7.4 8.8-8.8 32.6-10.8 67.8-2.6 92 21.6 24.2 24.2 32.6 59.4 21.6 92-1.4 4.2-4.6 7.4-8.8 8.8-9.6 3.2-19.2 4.8-28.8 4.8z m-60.2-102.4c-4.4 20.4 1.8 41.4 16.8 56.4s36 21 56.4 16.8c4.4-20.4-1.8-41.4-16.8-56.4s-36.2-21.2-56.4-16.8z" fill="#463218" /><path d="M374 314m-42.4 0a42.4 42.4 0 1 0 84.8 0 42.4 42.4 0 1 0-84.8 0Z" fill="#FE8E46" /><path d="M374 248.6m-22.8 0a22.8 22.8 0 1 0 45.6 0 22.8 22.8 0 1 0-45.6 0Z" fill="#FEFE71" /><path d="M374 379.2m-22.8 0a22.8 22.8 0 1 0 45.6 0 22.8 22.8 0 1 0-45.6 0Z" fill="#FEFE71" /><path d="M439.2 314m-22.8 0a22.8 22.8 0 1 0 45.6 0 22.8 22.8 0 1 0-45.6 0Z" fill="#FEFE71" /><path d="M308.6 314m-22.8 0a22.8 22.8 0 1 0 45.6 0 22.8 22.8 0 1 0-45.6 0Z" fill="#FEFE71" /><path d="M311.629962 376.125748a22.8 22.8 0 1 0 32.243506-32.244632 22.8 22.8 0 1 0-32.243506 32.244632Z" fill="#FEFE71" /><path d="M399.213265 277.136654a22.8 22.8 0 1 0 41.603762-18.667805 22.8 22.8 0 1 0-41.603762 18.667805Z" fill="#FEFE71" /><path d="M311.680046 283.906659a22.8 22.8 0 1 0 32.243506-32.244632 22.8 22.8 0 1 0-32.243506 32.244632Z" fill="#FEFE71" /><path d="M403.850465 376.175246a22.8 22.8 0 1 0 32.243506-32.244632 22.8 22.8 0 1 0-32.243506 32.244632Z" fill="#FEFE71" /><path d="M374 370.4c-31.2 0-56.4-25.4-56.4-56.4 0-31.2 25.4-56.4 56.4-56.4s56.4 25.4 56.4 56.4-25.4 56.4-56.4 56.4z m0-85c-15.6 0-28.4 12.8-28.4 28.4s12.8 28.4 28.4 28.4c15.6 0 28.4-12.8 28.4-28.4s-12.8-28.4-28.4-28.4z" fill="#463218" /><path d="M374 370.4c-31.2 0-56.4-25.4-56.4-56.4 0-31.2 25.4-56.4 56.4-56.4s56.4 25.4 56.4 56.4-25.4 56.4-56.4 56.4z m0-85c-15.6 0-28.4 12.8-28.4 28.4s12.8 28.4 28.4 28.4c15.6 0 28.4-12.8 28.4-28.4s-12.8-28.4-28.4-28.4z" fill="#463218" /><path d="M374 285.4c-20.2 0-36.8-16.4-36.8-36.8 0-20.2 16.4-36.8 36.8-36.8 20.2 0 36.8 16.4 36.8 36.8-0.2 20.4-16.6 36.8-36.8 36.8z m0-45.6c-4.8 0-8.8 4-8.8 8.8s4 8.8 8.8 8.8 8.8-4 8.8-8.8-4-8.8-8.8-8.8zM374 416c-20.2 0-36.8-16.4-36.8-36.8 0-20.2 16.4-36.8 36.8-36.8 20.2 0 36.8 16.4 36.8 36.8-0.2 20.2-16.6 36.8-36.8 36.8z m0-45.6c-4.8 0-8.8 4-8.8 8.8s4 8.8 8.8 8.8 8.8-4 8.8-8.8-4-8.8-8.8-8.8zM439.2 350.8c-20.2 0-36.8-16.4-36.8-36.8 0-20.2 16.4-36.8 36.8-36.8 20.2 0 36.8 16.4 36.8 36.8 0 20.2-16.6 36.8-36.8 36.8z m0-45.6c-4.8 0-8.8 4-8.8 8.8s4 8.8 8.8 8.8 8.8-4 8.8-8.8-4-8.8-8.8-8.8zM308.6 350.8c-20.2 0-36.8-16.4-36.8-36.8 0-20.2 16.4-36.8 36.8-36.8 20.2 0 36.8 16.4 36.8 36.8 0 20.2-16.4 36.8-36.8 36.8z m0-45.6c-4.8 0-8.8 4-8.8 8.8s4 8.8 8.8 8.8 8.8-4 8.8-8.8-3.8-8.8-8.8-8.8z" fill="#463218" /><path d="M327.8 396.8c-9.4 0-18.8-3.6-26-10.8-14.4-14.4-14.4-37.6 0-52 14.4-14.4 37.6-14.4 52 0 14.4 14.4 14.4 37.6 0 52-7.2 7.2-16.6 10.8-26 10.8z m0-45.6c-2.2 0-4.4 0.8-6.2 2.6-3.4 3.4-3.4 9 0 12.4 3.4 3.4 9 3.4 12.4 0 3.4-3.4 3.4-9 0-12.4-1.8-1.6-4-2.6-6.2-2.6zM420 304.6c-4.4 0-8.8-0.8-13-2.4-9.2-3.4-16.4-10.4-20.4-19.4-4-9-4.4-19-0.8-28.2s10.4-16.4 19.4-20.4c9-4 19-4.4 28.2-0.8 9.2 3.4 16.4 10.4 20.4 19.4 8.4 18.6 0 40.4-18.4 48.6-5.2 2.2-10.2 3.2-15.4 3.2z m0-45.6c-1.2 0-2.4 0.2-3.6 0.8-2.2 1-3.8 2.6-4.6 4.8-0.8 2.2-0.8 4.6 0.2 6.8s2.6 3.8 4.8 4.6c2.2 0.8 4.6 0.8 6.8-0.2s3.8-2.6 4.6-4.8c0.8-2.2 0.8-4.6-0.2-6.8-1.4-3.2-4.6-5.2-8-5.2zM327.8 304.6c-9.4 0-18.8-3.6-26-10.8-14.4-14.4-14.4-37.6 0-52 14.4-14.4 37.6-14.4 52 0 14.4 14.4 14.4 37.6 0 52-7.2 7.2-16.6 10.8-26 10.8z m0-45.6c-2.2 0-4.4 0.8-6.2 2.6-3.4 3.4-3.4 9 0 12.4 3.4 3.4 9 3.4 12.4 0 3.4-3.4 3.4-9 0-12.4-1.8-1.8-4-2.6-6.2-2.6zM420 396.8c-9.4 0-18.8-3.6-26-10.8-14.4-14.4-14.4-37.6 0-52 14.4-14.4 37.6-14.4 52 0 14.4 14.4 14.4 37.6 0 52-7.2 7.2-16.6 10.8-26 10.8z m0-45.6c-2.2 0-4.4 0.8-6.2 2.6-3.4 3.4-3.4 9 0 12.4 3.4 3.4 9 3.4 12.4 0 3.4-3.4 3.4-9 0-12.4-1.6-1.6-3.8-2.6-6.2-2.6z" fill="#463218" /><path d="M650 607.4c-7.8 0-14-6.2-14-14v-194c0-7.8 6.2-14 14-14s14 6.2 14 14v194c0 7.6-6.2 14-14 14z" fill="#463218" /><path d="M749.8 435.4c-26.4-8.8-56.6-2.8-77.6 18.2-21 21-27 51.2-18.2 77.6 26.4 8.8 56.6 2.8 77.6-18.2 21-21 27-51.2 18.2-77.6z" fill="#7DAC51" /><path d="M550.2 435.4c26.4-8.8 56.6-2.8 77.6 18.2 21 21 27 51.2 18.2 77.6-26.4 8.8-56.6 2.8-77.6-18.2a76.092 76.092 0 0 1-18.2-77.6z" fill="#7DAC51" /><path d="M678.2 549.2c-9.6 0-19.2-1.6-28.8-4.8-4.2-1.4-7.4-4.6-8.8-8.8-10.8-32.6-2.6-67.8 21.6-92 24.2-24.2 59.4-32.6 92-21.6 4.2 1.4 7.4 4.6 8.8 8.8 10.8 32.6 2.6 67.8-21.6 92-17 17.2-39.8 26.4-63.2 26.4z m-12.8-29.4c20.4 4.4 41.4-1.8 56.4-16.8s21-36 16.8-56.4c-20.4-4.4-41.4 1.8-56.4 16.8s-21.2 36-16.8 56.4z" fill="#463218" /><path d="M621.8 549.2c-23.4 0-46-9.2-63.2-26.4-24.2-24.2-32.6-59.4-21.6-92 1.4-4.2 4.6-7.4 8.8-8.8 32.6-10.8 67.8-2.6 92 21.6 24.2 24.2 32.6 59.4 21.6 92-1.4 4.2-4.6 7.4-8.8 8.8-9.4 3.2-19.2 4.8-28.8 4.8z m-60.2-102.4c-4.4 20.4 1.8 41.4 16.8 56.4s36 21 56.4 16.8c4.4-20.4-1.8-41.4-16.8-56.4s-36-21.2-56.4-16.8z" fill="#463218" /><path d="M650 314m-42.4 0a42.4 42.4 0 1 0 84.8 0 42.4 42.4 0 1 0-84.8 0Z" fill="#FE8E46" /><path d="M650 248.6m-22.8 0a22.8 22.8 0 1 0 45.6 0 22.8 22.8 0 1 0-45.6 0Z" fill="#FEFE71" /><path d="M650 379.2m-22.8 0a22.8 22.8 0 1 0 45.6 0 22.8 22.8 0 1 0-45.6 0Z" fill="#FEFE71" /><path d="M715.4 314m-22.8 0a22.8 22.8 0 1 0 45.6 0 22.8 22.8 0 1 0-45.6 0Z" fill="#FEFE71" /><path d="M584.8 314m-22.8 0a22.8 22.8 0 1 0 45.6 0 22.8 22.8 0 1 0-45.6 0Z" fill="#FEFE71" /><path d="M587.817174 376.102878a22.8 22.8 0 1 0 32.243507-32.244632 22.8 22.8 0 1 0-32.243507 32.244632Z" fill="#FEFE71" /><path d="M675.406544 277.113261a22.8 22.8 0 1 0 41.603763-18.667806 22.8 22.8 0 1 0-41.603763 18.667806Z" fill="#FEFE71" /><path d="M587.867258 283.883788a22.8 22.8 0 1 0 32.243507-32.244632 22.8 22.8 0 1 0-32.243507 32.244632Z" fill="#FEFE71" /><path d="M680.037678 376.152376a22.8 22.8 0 1 0 32.243506-32.244632 22.8 22.8 0 1 0-32.243506 32.244632Z" fill="#FEFE71" /><path d="M650 370.4c-31.2 0-56.4-25.4-56.4-56.4 0-31.2 25.4-56.4 56.4-56.4s56.4 25.4 56.4 56.4c0.2 31-25.2 56.4-56.4 56.4z m0-85c-15.6 0-28.4 12.8-28.4 28.4s12.8 28.4 28.4 28.4c15.6 0 28.4-12.8 28.4-28.4s-12.6-28.4-28.4-28.4z" fill="#463218" /><path d="M650 370.4c-31.2 0-56.4-25.4-56.4-56.4 0-31.2 25.4-56.4 56.4-56.4s56.4 25.4 56.4 56.4c0.2 31-25.2 56.4-56.4 56.4z m0-85c-15.6 0-28.4 12.8-28.4 28.4s12.8 28.4 28.4 28.4c15.6 0 28.4-12.8 28.4-28.4s-12.6-28.4-28.4-28.4z" fill="#463218" /><path d="M650 285.4c-20.2 0-36.8-16.4-36.8-36.8 0-20.2 16.4-36.8 36.8-36.8 20.2 0 36.8 16.4 36.8 36.8s-16.4 36.8-36.8 36.8z m0-45.6c-4.8 0-8.8 4-8.8 8.8s4 8.8 8.8 8.8 8.8-4 8.8-8.8-3.8-8.8-8.8-8.8zM650 416c-20.2 0-36.8-16.4-36.8-36.8 0-20.2 16.4-36.8 36.8-36.8 20.2 0 36.8 16.4 36.8 36.8 0 20.2-16.4 36.8-36.8 36.8z m0-45.6c-4.8 0-8.8 4-8.8 8.8s4 8.8 8.8 8.8 8.8-4 8.8-8.8-3.8-8.8-8.8-8.8zM715.4 350.8c-20.2 0-36.8-16.4-36.8-36.8 0-20.2 16.4-36.8 36.8-36.8 20.2 0 36.8 16.4 36.8 36.8 0 20.2-16.6 36.8-36.8 36.8z m0-45.6c-4.8 0-8.8 4-8.8 8.8s4 8.8 8.8 8.8 8.8-4 8.8-8.8-4-8.8-8.8-8.8zM584.8 350.8c-20.2 0-36.8-16.4-36.8-36.8 0-20.2 16.4-36.8 36.8-36.8 20.2 0 36.8 16.4 36.8 36.8 0 20.2-16.4 36.8-36.8 36.8z m0-45.6c-4.8 0-8.8 4-8.8 8.8s4 8.8 8.8 8.8 8.8-4 8.8-8.8-4-8.8-8.8-8.8z" fill="#463218" /><path d="M604 396.8c-9.4 0-18.8-3.6-26-10.8-14.4-14.4-14.4-37.6 0-52 14.4-14.4 37.6-14.4 52 0 14.4 14.4 14.4 37.6 0 52-7.2 7.2-16.6 10.8-26 10.8z m0-45.6c-2.2 0-4.4 0.8-6.2 2.6-3.4 3.4-3.4 9 0 12.4 3.4 3.4 9 3.4 12.4 0 3.4-3.4 3.4-9 0-12.4-1.8-1.6-4-2.6-6.2-2.6zM696.2 304.6c-4.4 0-8.8-0.8-13-2.4-9.2-3.4-16.4-10.4-20.4-19.4-8.4-18.6 0-40.4 18.6-48.6 18.6-8.2 40.4 0 48.6 18.6 4 9 4.4 19 0.8 28.2-3.4 9.2-10.4 16.4-19.4 20.4-5 2.2-10 3.2-15.2 3.2z m0-45.6c-1.2 0-2.4 0.2-3.6 0.8-4.4 2-6.4 7.2-4.4 11.6 1 2.2 2.6 3.8 4.8 4.6 2.2 0.8 4.6 0.8 6.8-0.2s3.8-2.6 4.6-4.8c0.8-2.2 0.8-4.6-0.2-6.8-1.4-3.2-4.6-5.2-8-5.2zM604 304.6c-9.4 0-18.8-3.6-26-10.8-14.4-14.4-14.4-37.6 0-52 14.4-14.4 37.6-14.4 52 0 14.4 14.4 14.4 37.6 0 52-7.2 7.2-16.6 10.8-26 10.8z m0-45.6c-2.2 0-4.4 0.8-6.2 2.6-3.4 3.4-3.4 9 0 12.4 3.4 3.4 9 3.4 12.4 0 3.4-3.4 3.4-9 0-12.4-1.8-1.8-4-2.6-6.2-2.6zM696.2 396.8c-9.4 0-18.8-3.6-26-10.8-14.4-14.4-14.4-37.6 0-52 14.4-14.4 37.6-14.4 52 0 14.4 14.4 14.4 37.6 0 52-7.2 7.2-16.6 10.8-26 10.8z m0-45.6c-2.2 0-4.4 0.8-6.2 2.6-3.4 3.4-3.4 9 0 12.4 3.4 3.4 9 3.4 12.4 0 3.4-3.4 3.4-9 0-12.4-1.6-1.6-4-2.6-6.2-2.6z" fill="#463218" /><path d="M512 673.4H260c-7.8 0-14-6.2-14-14s6.2-14 14-14h252c7.8 0 14 6.2 14 14s-6.2 14-14 14z" fill="#463218" /><path d="M764 673.4h-188.2c-7.8 0-14-6.2-14-14s6.2-14 14-14H764c7.8 0 14 6.2 14 14s-6.2 14-14 14z" fill="#463218" /></svg>