<?xml version="1.0" standalone="no"?><!DOCTYPE svg PUBLIC "-//W3C//DTD SVG 1.1//EN" "http://www.w3.org/Graphics/SVG/1.1/DTD/svg11.dtd"><svg class="icon" width="200px" height="200.00px" viewBox="0 0 1024 1024" version="1.1" xmlns="http://www.w3.org/2000/svg"><path d="M533.1 771.1l-42.2-6.1c0.5-3.7 1.7-8.4 3.3-14.8C516 661.8 508.3 604.5 505 580l42.3-5.6c12 89.8-4.6 157.2-11.8 186-1 4.4-2.1 9-2.4 10.7z" fill="#333333" /><path d="M590.7 748.2c19.3 29.6 58.9 38.1 88.5 18.8s73.9-82.1 54.6-111.8c-19.3-29.6-94.7-14.8-124.3 4.4-29.6 19.3-38.1 58.9-18.8 88.6z" fill="#A3F470" /><path d="M644.5 798.6c-28 0-55.4-13.7-71.7-38.8-25.6-39.5-14.4-92.4 25.1-118 18.2-11.8 47.9-21.2 75.6-23.9 37.3-3.6 65.1 5.5 78.2 25.7s10.2 49.3-8.3 81.9c-13.7 24.2-34.3 47.5-52.6 59.4-14.3 9.3-30.4 13.7-46.3 13.7z m-35.9-62c12.8 19.7 39.3 25.4 59 12.5 10.2-6.7 26.7-23.4 38.7-44.6 6.4-11.3 14.2-30.6 9.6-37.7-4.6-7-25.4-7.7-38.3-6.5-24.2 2.3-46.2 10.6-56.5 17.2-19.7 12.8-25.3 39.3-12.5 59.1z" fill="#333333" /><path d="M451.2 743.5c-19.3 29.6-58.9 38.1-88.5 18.8C333 743 288.8 680.1 308 650.5c19.3-29.6 94.7-14.8 124.3 4.4 29.7 19.3 38.1 58.9 18.9 88.6z" fill="#A3F470" /><path d="M397.3 794c-16.3 0-32.3-4.7-46.3-13.8-18.2-11.8-38.9-35.2-52.6-59.4-18.5-32.6-21.4-61.7-8.3-81.9s40.9-29.3 78.2-25.7c27.7 2.7 57.4 12 75.6 23.9 39.5 25.6 50.7 78.6 25.1 118-12.4 19.1-31.5 32.3-53.8 37-5.9 1.2-11.9 1.9-17.9 1.9z m-43.8-138.9c-11.5 0-24.2 1.7-27.6 7-4.6 7 3.3 26.4 9.6 37.7 12 21.2 28.4 37.9 38.7 44.6 9.6 6.2 21 8.3 32.1 6 11.1-2.4 20.7-8.9 26.9-18.5 12.8-19.7 7.2-46.2-12.5-59-10.2-6.7-32.3-14.9-56.5-17.2-3.2-0.4-6.9-0.6-10.7-0.6z" fill="#333333" /><path d="M451.678602 444.31819a85.3 85.3 0 1 0 120.630311-120.634522 85.3 85.3 0 1 0-120.630311 120.634522Z" fill="#FFD146" /><path d="M512 490.7c-6.7 0-13.5-0.6-20.4-2-57.7-11.2-95.6-67.3-84.4-125.1 5.4-28 21.4-52.1 45.1-68.1 23.6-15.9 52-21.7 80-16.3 57.7 11.2 95.6 67.3 84.4 125.1-9.9 50.9-54.7 86.4-104.7 86.4z m0-170.7c-30 0-56.9 21.3-62.8 51.8-6.7 34.6 16 68.3 50.6 75 34.6 6.7 68.3-16 75-50.6 6.7-34.6-16-68.3-50.6-75-4.1-0.8-8.2-1.2-12.2-1.2z" fill="#333333" /><path d="M528.247764 300.316214a42.7 106.7 11 1 0 40.71864-209.479241 42.7 106.7 11 1 0-40.71864 209.479241Z" fill="#FFEA00" /><path d="M531.9 321.9c-2.5 0-5-0.2-7.6-0.7-27.4-5.3-37.2-35.7-40.5-53.4-4.6-23.9-3.8-53.9 2.1-84.5s16.5-58.7 29.7-79.1c9.7-15.1 30.1-39.6 57.6-34.3 27.4 5.3 37.2 35.7 40.5 53.4 4.6 23.9 3.8 53.9-2.1 84.5s-16.5 58.7-29.7 79.1c-8.9 13.6-26.5 35-50 35z m32.9-209.6c-7.9 4.1-27.6 30-37.1 79.2-9.6 49.2-1 80.6 4.8 87.3 7.9-4.1 27.6-30 37.1-79.2s1-80.6-4.8-87.3z" fill="#333333" /><path d="M568.008481 319.610998a42.7 106.7 41.003 1 0 140.011429-161.047693 42.7 106.7 41.003 1 0-140.011429 161.047693Z" fill="#FFEA00" /><path d="M582.1 345.7c-9.8 0-19.6-2.6-28.1-10-21.1-18.3-14.3-49.5-8.4-66.5 8-23 23.7-48.6 44.1-72.1 20.4-23.5 43.6-42.6 65.3-53.7 16-8.2 45.9-19.2 67-0.9s14.3 49.5 8.4 66.5c-8 23-23.7 48.6-44.1 72.1-20.4 23.5-43.6 42.6-65.3 53.7-9.6 4.9-24.2 10.9-38.9 10.9z m0.2-42.6c8.8 0.4 38.9-12.2 71.7-50 32.9-37.8 41.2-69.3 39.5-78-8.9-0.4-38.9 12.2-71.7 50-32.8 37.8-41.1 69.3-39.5 78z" fill="#333333" /><path d="M592.617364 356.227609a42.7 106.7 70.997 1 0 201.770026-69.486809 42.7 106.7 70.997 1 0-201.770026 69.486809Z" fill="#FFEA00" /><path d="M638.3 396.1c-2.5 0-4.9-0.1-7.3-0.2-17.9-0.9-49.4-6.3-58.5-32.7-9.1-26.4 12.4-50.1 25.9-61.8 18.4-15.9 44.8-30.3 74.2-40.4 29.4-10.1 59.1-15.1 83.4-13.9 17.9 0.9 49.4 6.3 58.5 32.7 9.1 26.4-12.4 50.1-25.9 61.8-18.4 15.9-44.8 30.3-74.2 40.4-26.6 9.1-53.3 14.1-76.1 14.1z m-24.9-47c7.5 4.8 39.8 8.9 87.1-7.4s70.3-39.4 73.2-47.8c-7.5-4.8-39.8-8.9-87.1 7.4-47.4 16.3-70.3 39.4-73.2 47.8z" fill="#333333" /><path d="M692.297246 462.544506a106.7 42.7 11 1 0 16.295088-83.830962 106.7 42.7 11 1 0-16.295088 83.830962Z" fill="#FFEA00" /><path d="M738.9 488.5c-16 0-33.2-1.7-50.6-5.1-30.6-5.9-58.7-16.5-79.1-29.7-15.1-9.7-39.6-30.1-34.3-57.6 5.3-27.4 35.7-37.2 53.4-40.5 23.9-4.6 53.9-3.8 84.5 2.1s58.7 16.5 79.1 29.7c15.1 9.7 39.6 30.1 34.3 57.6-5.3 27.4-35.7 37.2-53.4 40.5-10.4 2.1-21.8 3-33.9 3z m-121.7-84c4.1 7.9 30 27.6 79.2 37.1 49.2 9.6 80.6 1 87.3-4.8-4.1-7.9-30-27.6-79.2-37.1-49.1-9.6-80.5-1-87.3 4.8z" fill="#333333" /><path d="M628.935537 542.242429a106.7 42.7 41.003 1 0 56.030816-64.449264 106.7 42.7 41.003 1 0-56.030816 64.449264Z" fill="#FFEA00" /><path d="M718.6 608.3c-11.8 0-23.4-3.1-31.6-5.9-23-8-48.6-23.7-72.1-44.1-23.5-20.4-42.6-43.6-53.7-65.3-8.2-16-19.2-45.9-0.9-67s49.5-14.3 66.5-8.4c23 8 48.6 23.7 72.1 44.1 23.5 20.4 42.6 43.6 53.7 65.3 8.2 16 19.2 45.9 0.9 67-9.4 10.8-22.3 14.3-34.9 14.3z m-125.7-154c-0.4 8.9 12.2 38.9 50 71.7 37.8 32.9 69.3 41.2 78 39.5 0.4-8.9-12.2-38.9-50-71.7-37.8-32.8-69.3-41.1-78-39.5z" fill="#333333" /><path d="M534.12213 579.380268a106.7 42.7 70.997 1 0 80.74583-27.807749 106.7 42.7 70.997 1 0-80.74583 27.807749Z" fill="#FFEA00" /><path d="M603.3 688.7c-21 0-39.1-16.8-48.9-28.1-15.9-18.4-30.3-44.8-40.4-74.2s-15.1-59.1-13.9-83.4c0.9-17.9 6.3-49.4 32.7-58.5 26.4-9.1 50.1 12.4 61.8 25.9 15.9 18.4 30.3 44.8 40.4 74.2s15.1 59.1 13.9 83.4c-0.9 17.9-6.3 49.4-32.7 58.5-4.4 1.6-8.7 2.2-12.9 2.2z m-56.4-203.3c-4.8 7.5-8.9 39.8 7.4 87.1s39.4 70.3 47.8 73.2c4.8-7.5 8.9-39.8-7.4-87.1-16.3-47.4-39.4-70.3-47.8-73.2z" fill="#333333" /><path d="M455.033039 677.206351a42.7 106.7 11 1 0 40.71864-209.479241 42.7 106.7 11 1 0-40.71864 209.479241Z" fill="#FFEA00" /><path d="M458.6 698.9c-2.5 0-5-0.2-7.6-0.7-27.4-5.3-37.2-35.7-40.5-53.4-4.6-23.9-3.8-53.9 2.1-84.5s16.5-58.7 29.7-79.1c9.7-15.1 30.2-39.6 57.6-34.3 27.4 5.3 37.2 35.7 40.5 53.4 4.6 23.9 3.8 53.9-2.1 84.5s-16.5 58.7-29.7 79.1c-8.9 13.6-26.4 35-50 35z m32.9-209.7c-7.9 4.1-27.6 30-37.1 79.2s-1 80.6 4.8 87.3c7.9-4.1 27.6-30 37.1-79.2 9.6-49.1 1.1-80.5-4.8-87.3z" fill="#333333" /><path d="M316.014585 609.478394a42.7 106.7 41.003 1 0 140.011429-161.047694 42.7 106.7 41.003 1 0-140.011429 161.047694Z" fill="#FFEA00" /><path d="M330.1 635.5c-9.8 0-19.6-2.6-28.1-10-21.1-18.3-14.3-49.5-8.4-66.5 8-23 23.7-48.6 44.1-72.1 20.4-23.5 43.6-42.6 65.3-53.7 16-8.2 45.9-19.2 67-0.9s14.3 49.5 8.4 66.5c-8 23-23.7 48.6-44.1 72.1-20.4 23.5-43.6 42.6-65.3 53.7-9.5 4.9-24.1 10.9-38.9 10.9z m0.3-42.6c8.9 0.4 38.9-12.2 71.7-50 32.9-37.8 41.2-69.3 39.5-78-8.9-0.4-38.9 12.2-71.7 50-32.8 37.8-41.2 69.3-39.5 78z" fill="#333333" /><path d="M229.617788 481.21214a42.7 106.7 70.997 1 0 201.770026-69.486809 42.7 106.7 70.997 1 0-201.770026 69.486809Z" fill="#FFEA00" /><path d="M275.2 521.1c-2.5 0-4.9-0.1-7.3-0.2-17.9-0.9-49.4-6.3-58.5-32.7-9.1-26.4 12.4-50.1 25.9-61.8 18.4-15.9 44.8-30.3 74.2-40.4 29.4-10.1 59.1-15.1 83.4-13.9 17.9 0.9 49.4 6.3 58.5 32.7 9.1 26.4-12.4 50.1-25.9 61.8-18.4 15.9-44.8 30.3-74.2 40.4-26.6 9.2-53.3 14.1-76.1 14.1z m-24.9-47c7.5 4.8 39.8 8.9 87.1-7.4s70.3-39.4 73.2-47.8c-7.5-4.8-39.8-8.9-87.1 7.4s-70.3 39.4-73.2 47.8z" fill="#333333" /><path d="M315.4063 389.328799a106.7 42.7 11 1 0 16.295088-83.830962 106.7 42.7 11 1 0-16.295088 83.830962Z" fill="#FFEA00" /><path d="M361.9 415.3c-16 0-33.2-1.7-50.6-5.1-30.6-5.9-58.7-16.5-79.1-29.7-15.1-9.7-39.6-30.1-34.3-57.6 5.3-27.4 35.7-37.2 53.4-40.5 23.9-4.6 53.9-3.8 84.5 2.1s58.7 16.5 79.1 29.7c15.1 9.7 39.6 30.1 34.3 57.6-5.3 27.4-35.7 37.2-53.4 40.5-10.3 2-21.7 3-33.9 3z m-121.6-84.1c4.1 7.9 30 27.6 79.2 37.1 49.2 9.6 80.6 1 87.3-4.8-4.1-7.9-30-27.6-79.2-37.1s-80.6-1-87.3 4.8z" fill="#333333" /><path d="M339.068142 290.248533a106.7 42.7 41.003 1 0 56.030816-64.449264 106.7 42.7 41.003 1 0-56.030816 64.449264Z" fill="#FFEA00" /><path d="M428.8 356.4c-11.8 0-23.4-3.1-31.6-5.9-23-8-48.6-23.7-72.1-44.1s-42.6-43.6-53.7-65.3c-8.2-16-19.2-45.9-0.9-67s49.5-14.3 66.5-8.4c23 8 48.6 23.7 72.1 44.1 23.5 20.4 42.6 43.6 53.7 65.3 8.2 16 19.2 45.9 0.9 67-9.5 10.8-22.3 14.3-34.9 14.3z m-125.7-154c-0.4 8.9 12.2 38.9 50 71.7 37.8 32.9 69.3 41.2 78 39.5 0.4-8.9-12.2-38.9-50-71.7-37.8-32.8-69.3-41.2-78-39.5z" fill="#333333" /><path d="M409.137598 216.380691a106.7 42.7 70.997 1 0 80.745831-27.807748 106.7 42.7 70.997 1 0-80.745831 27.807748Z" fill="#FFEA00" /><path d="M478.3 325.7c-21 0-39.1-16.8-48.9-28.1-15.9-18.4-30.3-44.8-40.4-74.2-10.1-29.4-15.1-59.1-13.9-83.4 0.9-17.9 6.3-49.4 32.7-58.5 26.4-9.1 50.1 12.4 61.8 25.9 15.9 18.4 30.3 44.8 40.4 74.2 10.1 29.4 15.1 59.1 13.9 83.4-0.9 17.9-6.3 49.4-32.7 58.5-4.4 1.5-8.7 2.2-12.9 2.2z m-56.4-203.4c-4.8 7.5-8.9 39.8 7.4 87.1s39.4 70.3 47.8 73.2c4.8-7.5 8.9-39.8-7.4-87.1s-39.4-70.3-47.8-73.2z" fill="#333333" /><path d="M525.6 348m-10.7 0a10.7 10.7 0 1 0 21.4 0 10.7 10.7 0 1 0-21.4 0Z" fill="#333333" /><path d="M504.829278 390.224641a10.7 10.7 0 1 0 18.57315-10.630057 10.7 10.7 0 1 0-18.57315 10.630057Z" fill="#333333" /><path d="M548.02873 391.611302a10.7 10.7 0 1 0 4.814681-20.851351 10.7 10.7 0 1 0-4.814681 20.851351Z" fill="#333333" /><path d="M523.121938 421.49384a10.7 10.7 0 1 0 19.234356-9.380807 10.7 10.7 0 1 0-19.234356 9.380807Z" fill="#333333" /><path d="M496.1 417.7m-10.7 0a10.7 10.7 0 1 0 21.4 0 10.7 10.7 0 1 0-21.4 0Z" fill="#333333" /><path d="M476.8 390.5m-10.7 0a10.7 10.7 0 1 0 21.4 0 10.7 10.7 0 1 0-21.4 0Z" fill="#333333" /><path d="M486.9 355.5m-10.7 0a10.7 10.7 0 1 0 21.4 0 10.7 10.7 0 1 0-21.4 0Z" fill="#333333" /><path d="M469.3 601.6c-0.3 0-0.6 0-0.8-0.1-2.3-0.5-3.8-2.7-3.3-5l22.2-111c0.5-2.3 2.7-3.8 5-3.3s3.8 2.7 3.3 5l-22.2 111c-0.4 2-2.2 3.4-4.2 3.4zM371 550.9c-1 0-2-0.3-2.8-1-1.8-1.5-2-4.2-0.5-6l73.3-86.3c1.5-1.8 4.2-2 6-0.5 1.8 1.5 2 4.2 0.5 6l-73.3 86.3c-0.8 0.9-2 1.5-3.2 1.5zM305.3 456.8c-1.8 0-3.5-1.2-4.1-3-0.7-2.2 0.5-4.6 2.8-5.4L411.9 414c2.2-0.7 4.6 0.5 5.4 2.8s-0.5 4.6-2.8 5.4l-107.9 34.4c-0.5 0.1-0.9 0.2-1.3 0.2zM406.8 367.6c-0.3 0-0.6 0-0.8-0.1l-111-22.2c-2.3-0.5-3.8-2.7-3.3-5s2.7-3.8 5-3.3l111 22.2c2.3 0.5 3.8 2.7 3.3 5-0.4 2-2.2 3.4-4.2 3.4zM432.8 321.6c-1.1 0-2.1-0.4-2.9-1.2l-82.4-77.7c-1.7-1.6-1.8-4.3-0.2-6s4.3-1.8 6-0.2l82.4 77.7c1.7 1.6 1.8 4.3 0.2 6-0.8 1-2 1.4-3.1 1.4zM480.4 293.8c-1.8 0-3.4-1.1-4-2.9l-36.2-107.3c-0.8-2.2 0.4-4.7 2.7-5.4 2.2-0.8 4.7 0.4 5.4 2.7l36.2 107.3c0.8 2.2-0.4 4.7-2.7 5.4-0.5 0.1-0.9 0.2-1.4 0.2zM531.9 287.3c-0.3 0-0.6 0-0.9-0.1-2.3-0.5-3.8-2.8-3.3-5.1l24.2-110.6c0.5-2.3 2.8-3.8 5.1-3.3s3.8 2.8 3.3 5.1L536 283.9c-0.4 2-2.2 3.4-4.1 3.4zM580.5 309.3c-1 0-2-0.4-2.8-1.1-1.8-1.6-1.9-4.3-0.4-6l74.8-85c1.6-1.8 4.3-1.9 6-0.4 1.8 1.6 1.9 4.3 0.4 6l-74.8 85c-0.9 1-2.1 1.5-3.2 1.5zM608.2 355.1c-1.8 0-3.4-1.1-4-2.8-0.8-2.2 0.4-4.7 2.6-5.5l106.6-38.1c2.2-0.8 4.7 0.4 5.5 2.6 0.8 2.2-0.4 4.7-2.6 5.5l-106.6 38.1c-0.5 0.1-1 0.2-1.5 0.2zM720.9 427.8c-0.3 0-0.5 0-0.8-0.1l-111.4-20.3c-2.3-0.4-3.9-2.6-3.4-5 0.4-2.3 2.6-3.9 5-3.4l111.4 20.3c2.3 0.4 3.9 2.6 3.4 5-0.4 2.1-2.2 3.5-4.2 3.5zM673.2 530.7c-1 0-2.1-0.4-2.9-1.1l-83.7-76.3c-1.7-1.6-1.9-4.3-0.3-6 1.6-1.7 4.3-1.9 6-0.3l83.7 76.3c1.7 1.6 1.9 4.3 0.3 6-0.8 0.9-1.9 1.4-3.1 1.4zM582.4 593.7c-1.8 0-3.4-1.1-4-2.9l-36.2-107.3c-0.8-2.2 0.4-4.7 2.7-5.4 2.2-0.8 4.7 0.4 5.4 2.7l36.2 107.3c0.8 2.2-0.4 4.7-2.7 5.4-0.5 0.2-0.9 0.2-1.4 0.2z" fill="#333333" /><path d="M469.3 601.6c-0.3 0-0.6 0-0.8-0.1-2.3-0.5-3.8-2.7-3.3-5l22.2-111c0.5-2.3 2.7-3.8 5-3.3s3.8 2.7 3.3 5l-22.2 111c-0.4 2-2.2 3.4-4.2 3.4zM371 550.9c-1 0-2-0.3-2.8-1-1.8-1.5-2-4.2-0.5-6l73.3-86.3c1.5-1.8 4.2-2 6-0.5 1.8 1.5 2 4.2 0.5 6l-73.3 86.3c-0.8 0.9-2 1.5-3.2 1.5zM305.3 456.8c-1.8 0-3.5-1.2-4.1-3-0.7-2.2 0.5-4.6 2.8-5.4L411.9 414c2.2-0.7 4.6 0.5 5.4 2.8s-0.5 4.6-2.8 5.4l-107.9 34.4c-0.5 0.1-0.9 0.2-1.3 0.2zM406.8 367.6c-0.3 0-0.6 0-0.8-0.1l-111-22.2c-2.3-0.5-3.8-2.7-3.3-5s2.7-3.8 5-3.3l111 22.2c2.3 0.5 3.8 2.7 3.3 5-0.4 2-2.2 3.4-4.2 3.4zM432.8 321.6c-1.1 0-2.1-0.4-2.9-1.2l-82.4-77.7c-1.7-1.6-1.8-4.3-0.2-6s4.3-1.8 6-0.2l82.4 77.7c1.7 1.6 1.8 4.3 0.2 6-0.8 1-2 1.4-3.1 1.4zM480.4 293.8c-1.8 0-3.4-1.1-4-2.9l-36.2-107.3c-0.8-2.2 0.4-4.7 2.7-5.4 2.2-0.8 4.7 0.4 5.4 2.7l36.2 107.3c0.8 2.2-0.4 4.7-2.7 5.4-0.5 0.1-0.9 0.2-1.4 0.2zM531.9 287.3c-0.3 0-0.6 0-0.9-0.1-2.3-0.5-3.8-2.8-3.3-5.1l24.2-110.6c0.5-2.3 2.8-3.8 5.1-3.3s3.8 2.8 3.3 5.1L536 283.9c-0.4 2-2.2 3.4-4.1 3.4zM580.5 309.3c-1 0-2-0.4-2.8-1.1-1.8-1.6-1.9-4.3-0.4-6l74.8-85c1.6-1.8 4.3-1.9 6-0.4 1.8 1.6 1.9 4.3 0.4 6l-74.8 85c-0.9 1-2.1 1.5-3.2 1.5zM608.2 355.1c-1.8 0-3.4-1.1-4-2.8-0.8-2.2 0.4-4.7 2.6-5.5l106.6-38.1c2.2-0.8 4.7 0.4 5.5 2.6 0.8 2.2-0.4 4.7-2.6 5.5l-106.6 38.1c-0.5 0.1-1 0.2-1.5 0.2zM720.9 427.8c-0.3 0-0.5 0-0.8-0.1l-111.4-20.3c-2.3-0.4-3.9-2.6-3.4-5 0.4-2.3 2.6-3.9 5-3.4l111.4 20.3c2.3 0.4 3.9 2.6 3.4 5-0.4 2.1-2.2 3.5-4.2 3.5zM673.2 530.7c-1 0-2.1-0.4-2.9-1.1l-83.7-76.3c-1.7-1.6-1.9-4.3-0.3-6 1.6-1.7 4.3-1.9 6-0.3l83.7 76.3c1.7 1.6 1.9 4.3 0.3 6-0.8 0.9-1.9 1.4-3.1 1.4zM582.4 593.7c-1.8 0-3.4-1.1-4-2.9l-36.2-107.3c-0.8-2.2 0.4-4.7 2.7-5.4 2.2-0.8 4.7 0.4 5.4 2.7l36.2 107.3c0.8 2.2-0.4 4.7-2.7 5.4-0.5 0.2-0.9 0.2-1.4 0.2z" fill="#333333" /><path d="M436 768h152c23.6 0 42.7 19.1 42.7 42.7 0 2.8-0.3 5.6-0.8 8.4l-25.6 128c-4 19.9-21.5 34.3-41.8 34.3H461.6c-20.3 0-37.8-14.4-41.8-34.3L394.2 819c-4.6-23.1 10.4-45.6 33.5-50.2 2.7-0.5 5.5-0.8 8.3-0.8z" fill="#D4864B" /><path d="M562.4 1002.7H461.6c-30.4 0-56.8-21.6-62.8-51.4l-25.6-128c-6.9-34.6 15.6-68.4 50.2-75.3 4.1-0.8 8.3-1.2 12.6-1.2h152c35.3 0 64 28.7 64 64 0 4.2-0.4 8.4-1.2 12.5l-25.6 128c-6.1 29.7-32.4 51.4-62.8 51.4zM436 789.3c-1.4 0-2.8 0.1-4.2 0.4-11.5 2.3-19 13.6-16.7 25.1l25.6 128c2 9.9 10.8 17.1 20.9 17.1h100.7c10.1 0 18.9-7.2 20.9-17.2l25.6-128c0.3-1.4 0.4-2.8 0.4-4.2 0-11.8-9.6-21.3-21.3-21.3H436z" fill="#333333" /><path d="M514.7 847c-36.5 0-72.4-3-106.5-8.8-5.8-1-9.7-6.5-8.7-12.3 1-5.8 6.5-9.7 12.3-8.7 33 5.7 67.6 8.5 102.9 8.5 35.4 0 71.4-2.9 106.9-8.6 5.8-0.9 11.3 3 12.2 8.9s-3 11.3-8.9 12.2c-36.6 5.8-73.7 8.8-110.2 8.8zM511 879.6c-36.5 0-72.4-3-106.5-8.8-5.8-1-9.7-6.5-8.7-12.3 1-5.8 6.5-9.7 12.3-8.7 33 5.7 67.6 8.5 102.9 8.5 35.4 0 71.4-2.9 106.9-8.6 5.8-0.9 11.3 3 12.2 8.9s-3 11.3-8.9 12.2c-36.6 5.8-73.7 8.8-110.2 8.8z" fill="#333333" /></svg>