<?xml version="1.0" standalone="no"?><!DOCTYPE svg PUBLIC "-//W3C//DTD SVG 1.1//EN" "http://www.w3.org/Graphics/SVG/1.1/DTD/svg11.dtd"><svg t="1744247835164" class="icon" viewBox="0 0 1025 1024" version="1.1" xmlns="http://www.w3.org/2000/svg" p-id="3641" xmlns:xlink="http://www.w3.org/1999/xlink" width="200.1953125" height="200"><path d="M999.539674 24.967525a86.150743 86.150743 0 0 0-82.6996-21.857236 701.391458 701.391458 0 0 0-276.048795 169.702477l-403.741068 403.698461a621.290866 621.290866 0 0 0-186.446909-64.847394 42.606698 42.606698 0 0 0-12.185515 84.361262 538.250413 538.250413 0 0 1 228.073653 101.65958L108.463198 855.755524l-33.787112-33.787111a42.606698 42.606698 0 1 0-60.24587 60.24587l127.820093 127.820094a42.606698 42.606698 0 1 0 60.245871-60.245871l-33.787112-33.787111 158.028242-158.070849a537.227852 537.227852 0 0 1 101.702188 228.11626 42.606698 42.606698 0 0 0 84.403868-12.142909 618.351004 618.351004 0 0 0-64.847394-186.446909l403.698461-403.741068a703.82004 703.82004 0 0 0 170.852858-280.096431 84.957755 84.957755 0 0 0-23.007617-78.651964z m-208.133718 298.459918L400.830358 714.088254c-12.909829-17.042679-26.97004-33.148011-42.095418-48.315995a484.182513 484.182513 0 0 0-48.273388-42.095417l390.575598-390.575599a612.85474 612.85474 0 0 1 237.9158-147.589601 615.751996 615.751996 0 0 1-147.546994 237.958407z" fill="#374957" p-id="3642"></path></svg>