<?xml version="1.0" standalone="no"?><!DOCTYPE svg PUBLIC "-//W3C//DTD SVG 1.1//EN" "http://www.w3.org/Graphics/SVG/1.1/DTD/svg11.dtd"><svg t="1744248943644" class="icon" viewBox="0 0 1024 1024" version="1.1" xmlns="http://www.w3.org/2000/svg" p-id="8667" xmlns:xlink="http://www.w3.org/1999/xlink" width="200" height="200"><path d="M192 64h459.008a128 128 0 0 1 90.496 37.504l180.992 180.992A128 128 0 0 1 960 372.992V832a128 128 0 0 1-128 128H192a128 128 0 0 1-128-128V192a128 128 0 0 1 128-128z" fill="#FFC757" p-id="8668"></path><path d="M320 576v192H192V576h128z m-32 128h-64v32h64V704zM320 448v64H256V448h64zM256 384v64H192V384h64z m64-64v64H256V320h64zM256 256v64H192V256h64z m64-64v64H256V192h64zM256 128v64H192V128h64z" fill="#FFFFFF" p-id="8669"></path><path d="M741.504 101.504l180.992 180.992a128 128 0 0 1 35.776 69.44L768 352A96 96 0 0 1 672 256V65.728a128 128 0 0 1 69.504 35.776z" fill="#F7A334" p-id="8670"></path></svg>