<?xml version="1.0" standalone="no"?><!DOCTYPE svg PUBLIC "-//W3C//DTD SVG 1.1//EN" "http://www.w3.org/Graphics/SVG/1.1/DTD/svg11.dtd"><svg t="1744251345790" class="icon" viewBox="0 0 1024 1024" version="1.1" xmlns="http://www.w3.org/2000/svg" p-id="6669" xmlns:xlink="http://www.w3.org/1999/xlink" width="200" height="200"><path d="M968.018 809.983c9.33 5.345 13.67 14.35 13.015 27.005-0.655 12.66-6.315 23.65-16.985 32.98l-98 98.01c-20 19.995-39.995 19.995-59.99 0L418.046 579.969c-48.012 19.995-99.015 24.33-153.002 13.01-53.987-11.32-100.992-36.99-141.012-77.01-42.667-42.67-69.335-93.342-80-152.022-10.667-58.682-2.66-113.352 24.02-164.012l187.99 184.022 128-128-184.02-184.022C250.679 47.93 305.349 40.59 364.032 49.92c58.68 9.33 109.355 35.327 152.017 77.995 39.995 39.992 65.67 86.997 77.02 141.012 11.345 54.017 7.01 105.017-13.02 153.002l387.969 388.054z" fill="#1296DB" p-id="6670"></path></svg>