<?xml version="1.0" standalone="no"?><!DOCTYPE svg PUBLIC "-//W3C//DTD SVG 1.1//EN" "http://www.w3.org/Graphics/SVG/1.1/DTD/svg11.dtd"><svg class="icon" width="200px" height="200.00px" viewBox="0 0 1024 1024" version="1.1" xmlns="http://www.w3.org/2000/svg"><path fill="#ffffff" d="M796.077419 909.488172c-10.276703-46.612186-44.410036-83.314695-68.266666-117.815054-11.744803-20.92043-23.489606-41.84086-35.234409-62.394265-8.808602-12.845878-17.617204-26.058781-26.425806-38.904659-11.377778-18.71828-17.984229-41.84086-25.691757-62.394266 15.782079 6.973477 26.425806 28.260932 39.63871 38.90466 25.324731 20.553405 52.484588 44.043011 72.670968 69.734767 7.707527 11.377778 15.782079 23.122581 23.489606 34.500358v1.468101h0.73405c-6.973477-23.856631-14.313978-47.713262-21.287456-71.202868-8.441577-9.175627-16.516129-18.71828-24.957706-27.893907-4.771326-10.643728-9.909677-21.65448-14.681003-32.298207l-33.032258-48.447312c-34.133333-40.37276-68.266667-80.74552-102.032975-121.485305-48.814337-69.367742-75.240143-161.858065-124.421506-231.592831C425.382079 194.890323 396.387097 117.081004 323.349104 116.713978c-5.872401 1.101075-11.744803 2.569176-17.617204 3.670251-17.250179 6.239427-34.133333 22.021505-38.17061 41.10681-13.212903 1.835125-27.159857 4.037276-37.436559 7.340502-1.101075 1.4681-2.569176 2.936201-3.670251 4.404301 13.579928 2.569176 27.893907 2.202151 44.777061 2.202151 7.707527 17.984229 22.38853 30.830108 26.425807 51.383512 3.670251 18.351254-4.771326 33.032258-7.340502 46.979212-5.138351 27.893907 1.4681 60.55914 9.542652 79.277419 16.516129 38.537634 47.713262 66.064516 80.74552 88.086022 9.909677 5.872401 20.18638 11.744803 30.096057 17.617204-12.478853 12.111828-40.005735 2.936201-44.04301 24.223656 8.074552-1.101075 9.542652-5.872401 16.883154-7.340502h0.73405c0.367025 3.670251 0.367025 7.340502 0.73405 11.010753h0.73405c4.037276-4.037276 9.175627-12.478853 10.276703-19.085305 20.92043-5.872401 42.207885 4.404301 51.383512 13.946954-5.505376 1.835125-10.643728 4.037276-16.149104 5.872401-5.505376 4.037276-10.643728 8.441577-16.149104 12.478853-19.819355 8.808602-38.904659 4.037276-48.447311 22.755556v0.73405c6.973477-1.4681 9.909677-5.138351 15.415053-7.340502h0.73405c0.73405 2.569176 1.4681 5.505376 2.202151 8.074552 0.367025 0.367025 1.101075 0.367025 1.4681 0.73405 3.670251-4.771326 7.707527-9.175627 9.542653-15.415054 22.755556-11.010753 48.814337 7.340502 62.394265 13.212904-4.771326-15.782079-19.085305-24.590681-37.436559-16.883155h-0.73405c3.670251-13.946953 30.096057-25.324731 43.30896-17.617204 21.287455 12.478853 53.952688 50.282437 69.734767 69.734767 23.856631 29.729032 52.851613 57.622939 72.670968 90.288172 13.579928 22.38853 21.287455 46.612186 31.564158 71.936918 8.074552 15.048029 16.149104 30.463082 24.223656 45.511111 5.505376 15.048029 10.643728 29.729032 16.149104 44.777061 10.276703 25.691756 31.564158 56.154839 35.968458 83.68172h0.73405c-2.936201-30.830108-16.516129-60.55914-26.425806-86.617921-14.313978-37.436559-24.223656-74.139068-35.234409-114.878853 11.377778 16.516129 22.38853 33.399283 33.766309 49.915412l107.905376 164.060215v1.468101h1.4681zM293.620072 153.049462c-3.670251 0-6.973477-2.936201-6.973477-6.973476s2.936201-6.973477 6.973477-6.973477 6.973477 2.936201 6.973476 6.973477-2.936201 6.973477-6.973476 6.973476z"  /></svg>